<svg width="80" height="80" viewBox="0 0 80 80" fill="none" xmlns="http://www.w3.org/2000/svg">
<g id="bike-racing">
<g id="Group">
<path id="Vector" d="M68.0804 59.5612C73.4265 59.5612 77.7604 55.2273 77.7604 49.8812C77.7604 44.5351 73.4265 40.2012 68.0804 40.2012C62.7343 40.2012 58.4004 44.5351 58.4004 49.8812C58.4004 55.2273 62.7343 59.5612 68.0804 59.5612Z" fill="#313672"/>
<path id="Vector_2" d="M59.9204 50.8412C59.9204 45.4812 64.2404 41.1612 69.6004 41.1612C71.2004 41.1612 72.7204 41.5612 74.0804 42.2812C72.4004 41.0012 70.4004 40.2012 68.1604 40.2012C62.7204 40.2012 58.4004 44.5212 58.4004 49.8812C58.4004 53.6412 60.4804 56.8412 63.6004 58.4412C61.3604 56.6812 59.9204 53.9612 59.9204 50.8412Z" fill="#3D448F"/>
<path id="Vector_3" d="M73.8396 42.1211C75.1996 43.8011 75.9996 45.8811 75.9996 48.2011C75.9996 53.5611 71.6796 57.8811 66.3196 57.8811C64.1596 57.8811 62.1596 57.1611 60.5596 55.9611C62.3196 58.1211 65.0396 59.5611 68.0796 59.5611C73.4396 59.5611 77.7596 55.2411 77.7596 49.8811C77.7596 46.6811 76.2396 43.8811 73.8396 42.1211Z" fill="#2B2F64"/>
<path id="Vector_4" d="M68.0797 56.2805C71.6143 56.2805 74.4797 53.4151 74.4797 49.8805C74.4797 46.3458 71.6143 43.4805 68.0797 43.4805C64.5451 43.4805 61.6797 46.3458 61.6797 49.8805C61.6797 53.4151 64.5451 56.2805 68.0797 56.2805Z" fill="#F3FBFE"/>
<path id="Vector_5" d="M62.6397 50.5205C62.6397 47.0005 65.5197 44.1205 69.0397 44.1205C70.0797 44.1205 71.1197 44.3605 71.9997 44.8405C70.8797 43.9605 69.5197 43.4805 68.0797 43.4805C64.5597 43.4805 61.6797 46.3605 61.6797 49.8805C61.6797 52.3605 63.1197 54.5205 65.1197 55.5605C63.5997 54.3605 62.6397 52.5205 62.6397 50.5205Z" fill="white"/>
<path id="Vector_6" d="M71.9201 44.7617C72.8001 45.8817 73.3601 47.2417 73.3601 48.7617C73.3601 52.2817 70.4801 55.1617 66.9601 55.1617C65.5201 55.1617 64.1601 54.6817 63.1201 53.8817C64.3201 55.3217 66.0801 56.2817 68.0801 56.2817C71.6001 56.2817 74.4801 53.4017 74.4801 49.8817C74.5601 47.7217 73.5201 45.8817 71.9201 44.7617Z" fill="#E3E8EE"/>
<path id="Vector_7" d="M16.3993 61.0798C22.5407 61.0798 27.5193 56.1012 27.5193 49.9598C27.5193 43.8184 22.5407 38.8398 16.3993 38.8398C10.2579 38.8398 5.2793 43.8184 5.2793 49.9598C5.2793 56.1012 10.2579 61.0798 16.3993 61.0798Z" fill="#313672"/>
<path id="Vector_8" d="M6.9602 51.0798C6.9602 44.9198 11.9202 39.9598 18.0802 39.9598C19.9202 39.9598 21.6802 40.4398 23.2002 41.2398C21.2802 39.7198 18.9602 38.8398 16.3202 38.8398C10.1602 38.8398 5.2002 43.7998 5.2002 49.9598C5.2002 54.2798 7.6802 57.9598 11.2002 59.8798C8.6402 57.7998 6.9602 54.6798 6.9602 51.0798Z" fill="#2B2F64"/>
<path id="Vector_9" d="M23.0398 41.0801C24.5598 43.0001 25.5198 45.4001 25.5198 48.1201C25.5198 54.2801 20.5598 59.2401 14.3998 59.2401C11.9198 59.2401 9.59977 58.4401 7.75977 57.0001C9.83977 59.5601 12.9598 61.1601 16.4798 61.1601C22.6398 61.1601 27.5998 56.2001 27.5998 50.0401C27.5998 46.2801 25.8398 43.0801 23.0398 41.0801Z" fill="#2B2F64"/>
<path id="Vector_10" d="M16.4 57.3216C20.4649 57.3216 23.76 54.0264 23.76 49.9616C23.76 45.8967 20.4649 42.6016 16.4 42.6016C12.3352 42.6016 9.04004 45.8967 9.04004 49.9616C9.04004 54.0264 12.3352 57.3216 16.4 57.3216Z" fill="#F3FBFE"/>
<path id="Vector_11" d="M10.16 50.6815C10.16 46.6015 13.44 43.3215 17.52 43.3215C18.72 43.3215 19.92 43.6415 20.96 44.1215C19.68 43.1615 18.16 42.5215 16.4 42.5215C12.32 42.5215 9.04004 45.8015 9.04004 49.8815C9.04004 52.7615 10.64 55.2415 13.04 56.4415C11.28 55.1615 10.16 53.0815 10.16 50.6815Z" fill="white"/>
<path id="Vector_12" d="M20.7997 44.041C21.8397 45.321 22.4797 46.921 22.4797 48.681C22.4797 52.761 19.1997 56.041 15.1197 56.041C13.4397 56.041 11.9197 55.481 10.7197 54.601C12.0797 56.281 14.1597 57.321 16.4797 57.321C20.5597 57.321 23.8397 54.041 23.8397 49.961C23.8397 47.561 22.6397 45.401 20.7997 44.041Z" fill="#E3E8EE"/>
<g id="Group_2">
<path id="Vector_13" d="M68.0805 52.4403C69.4944 52.4403 70.6405 51.2942 70.6405 49.8803C70.6405 48.4665 69.4944 47.3203 68.0805 47.3203C66.6667 47.3203 65.5205 48.4665 65.5205 49.8803C65.5205 51.2942 66.6667 52.4403 68.0805 52.4403Z" fill="#B9BAEA"/>
<path id="Vector_14" d="M65.9206 50.1203C65.9206 48.6803 67.0406 47.5603 68.4806 47.5603C68.8806 47.5603 69.2806 47.6403 69.6806 47.8803C69.2806 47.5603 68.7206 47.3203 68.1606 47.3203C66.7206 47.3203 65.6006 48.4403 65.6006 49.8803C65.6006 50.8403 66.1606 51.7203 66.9606 52.1203C66.3206 51.6403 65.9206 50.9203 65.9206 50.1203Z" fill="#CBCDF7"/>
<path id="Vector_15" d="M69.6001 47.8008C69.9201 48.2008 70.1601 48.7608 70.1601 49.4008C70.1601 50.8408 69.0401 51.9608 67.6001 51.9608C67.0401 51.9608 66.4801 51.8008 66.0801 51.4808C66.5601 52.0408 67.2801 52.4408 68.0801 52.4408C69.5201 52.4408 70.6401 51.3208 70.6401 49.8808C70.6401 49.0008 70.2401 48.2808 69.6001 47.8008Z" fill="#A9ABDF"/>
</g>
<g id="Group_3">
<path id="Vector_16" d="M16.3998 53.5613C18.388 53.5613 19.9998 51.9496 19.9998 49.9613C19.9998 47.9731 18.388 46.3613 16.3998 46.3613C14.4116 46.3613 12.7998 47.9731 12.7998 49.9613C12.7998 51.9496 14.4116 53.5613 16.3998 53.5613Z" fill="#747A94"/>
<path id="Vector_17" d="M13.44 50.3614C13.44 48.3614 15.04 46.7614 17.04 46.7614C17.6 46.7614 18.16 46.9214 18.72 47.1614C18.08 46.6814 17.36 46.4414 16.56 46.4414C14.56 46.4414 12.96 48.0414 12.96 50.0414C12.96 51.4014 13.76 52.6014 14.88 53.1614C13.92 52.5214 13.44 51.4814 13.44 50.3614Z" fill="#8087A0"/>
<path id="Vector_18" d="M18.5596 47.1621C19.0396 47.8021 19.3596 48.5221 19.3596 49.4021C19.3596 51.4021 17.7596 53.0021 15.7596 53.0021C14.9596 53.0021 14.2396 52.7621 13.5996 52.2821C14.2396 53.0821 15.2796 53.6421 16.3996 53.6421C18.3996 53.6421 19.9996 52.0421 19.9996 50.0421C19.9996 48.8421 19.4396 47.8021 18.5596 47.1621Z" fill="#585C77"/>
</g>
<g id="Group_4">
<path id="Vector_19" d="M24.7998 37.0004C24.9598 37.1604 25.0398 37.3204 25.1198 37.4004C25.1998 37.4004 25.1998 37.4804 25.2798 37.4804C25.4398 37.3204 25.5998 37.1604 25.7598 37.0804C25.4398 37.0004 25.1198 37.0004 24.7998 37.0004ZM32.3998 31.5604C32.7198 31.8004 33.3598 32.6804 33.8398 33.1604C33.9198 33.0804 34.0798 33.0004 34.2398 32.9204C35.1998 32.2804 36.3198 31.7204 37.4398 31.3204C38.2398 31.0804 39.0398 30.9204 39.8398 31.0804C40.8798 31.3204 41.9998 31.6404 43.0398 31.8804C43.1198 31.5604 43.2798 31.2404 43.3598 31.0004C43.5198 30.6004 43.7598 30.3604 44.1598 30.2004C46.7198 29.4804 49.2798 28.8404 51.8398 28.1204C51.9998 28.1204 52.0798 28.0404 52.2398 28.1204C52.0798 27.8804 51.9198 27.7204 51.7598 27.5604C50.9598 26.9204 50.0798 26.6004 49.1198 26.3604C46.7998 25.8804 44.4798 25.4804 42.1598 25.0004C40.5598 24.6804 39.1198 24.9204 37.7598 25.7204C37.0398 26.1204 36.3998 26.6004 35.8398 27.1604C34.4798 28.4404 33.4398 29.8804 32.3998 31.5604Z" fill="#50A5EF"/>
<path id="Vector_20" d="M8.15918 25.2402C8.39918 26.2002 8.87918 27.0002 9.59918 27.5602C9.75918 27.7202 9.99918 27.8002 10.1592 27.9602C10.6392 28.2802 11.1992 28.5202 11.7592 28.6802C12.3192 28.8402 12.8792 29.0002 13.4392 29.2402C15.5192 29.9602 17.4392 31.0002 19.1192 32.5202C20.3192 33.5602 21.1992 34.8402 21.6792 36.3602C21.7592 36.7602 22.0792 36.9202 22.3992 36.9202C23.1992 37.0002 23.9192 37.0002 24.7192 37.0802C25.0392 37.0802 25.3592 37.0802 25.5992 37.1602C25.9192 37.1602 26.1592 37.1602 26.4792 37.2402C27.8392 37.3202 29.1992 37.4002 30.5592 37.4802C30.6392 37.4802 30.7192 37.4802 30.8792 37.3202C30.7192 37.2402 30.6392 37.0802 30.4792 37.0002C29.1992 36.2802 27.9192 35.4002 26.7192 34.5202C25.9992 34.0402 25.3592 33.4802 24.7192 32.9202C24.6392 32.8402 24.5592 32.7602 24.3992 32.6802C23.5992 31.9602 22.7992 31.1602 22.1592 30.2802C21.9192 29.9602 21.6792 29.5602 21.5192 29.2402C21.4392 29.0802 21.1992 28.9202 21.0392 28.7602C19.8392 27.8802 18.3992 27.4802 16.9592 27.0002C14.4792 26.2802 11.9192 25.8802 9.35918 25.4802C9.11918 25.4802 8.87918 25.4002 8.63918 25.3202C8.55918 25.3202 8.55918 25.3202 8.47918 25.3202C8.55918 25.2402 8.39918 25.2402 8.15918 25.2402Z" fill="#50A5EF"/>
<path id="Vector_21" d="M8.71926 25.2402C8.71926 25.2402 8.79926 25.2402 8.87926 25.2402C9.11926 25.2402 9.35926 25.3202 9.59926 25.4002C9.99926 25.4802 10.4793 25.5602 10.8793 25.5602C11.0393 25.6402 11.1993 25.8002 11.3593 25.8802C11.8393 26.2002 12.3993 26.4402 12.9593 26.6002C13.5193 26.7602 14.0793 26.9202 14.6393 27.1602C16.7193 27.8802 18.6393 28.9202 20.3193 30.4402C21.5193 31.4802 22.3993 32.7602 22.8793 34.2802C22.9593 34.6802 23.2793 34.8402 23.5993 34.8402C24.3993 34.9202 25.1193 34.9202 25.9193 35.0002C26.2393 35.0002 26.5593 35.0002 26.7993 35.0802C27.0393 35.0802 27.3593 35.0802 27.5993 35.1602C28.5593 35.8002 29.5193 36.4402 30.5593 37.0802C30.7193 37.1602 30.7993 37.3202 30.9593 37.4002C30.7993 37.4802 30.7193 37.5602 30.6393 37.5602C29.2793 37.4802 27.9193 37.4002 26.5593 37.3202C26.2393 37.3202 25.9993 37.3202 25.6793 37.2402C25.3593 37.2402 25.0393 37.2402 24.7993 37.1602C23.9993 37.0802 23.1993 37.0802 22.4793 37.0002C22.0793 37.0002 21.8393 36.7602 21.7593 36.4402C21.2793 34.9202 20.3193 33.7202 19.1993 32.6002C17.5193 31.0802 15.5993 30.1202 13.5193 29.3202C12.9593 29.1602 12.3993 28.9202 11.8393 28.7602C11.2793 28.6002 10.7193 28.3602 10.2393 28.0402C10.0793 27.9602 9.83926 27.8002 9.67926 27.6402C8.95926 27.0802 8.47926 26.2802 8.23926 25.3202C8.39926 25.2402 8.55926 25.2402 8.71926 25.2402Z" fill="#418ED0"/>
<path id="Vector_22" d="M11.04 44.6799C11.12 44.7599 11.2 44.8399 11.2 44.9199C12.96 46.1999 14.72 47.5599 16.4 48.8399C17.6 48.7599 18.8 48.5999 20 48.5199C21.92 48.3599 23.92 48.1999 25.84 47.9599C26.32 47.9599 26.8 47.8799 27.2 47.8799C27.2 47.7999 27.28 47.7199 27.36 47.6399C27.92 46.9199 28.56 46.3599 29.12 45.6399C29.52 45.0799 30 44.6799 30.72 44.7599C30.48 44.5199 11.44 44.5199 11.04 44.6799Z" fill="#B9BAEA"/>
<path id="Vector_23" d="M30.3993 44.6816C30.6393 44.6816 30.7993 44.6816 30.8793 44.7616C30.7193 44.7616 30.4793 44.7616 30.3193 44.7616L30.3993 44.6816Z" fill="#585C77"/>
<path id="Vector_24" d="M14.9591 44.6016C16.0791 45.4816 17.1991 46.2816 18.3191 47.0816C19.5191 47.0016 20.7191 46.8416 21.9191 46.7616C23.8391 46.6016 25.8391 46.4416 27.7591 46.2016C28.0791 46.2016 28.3991 46.1216 28.7191 46.1216C28.3191 46.6016 27.8391 47.0816 27.4391 47.5616C27.3591 47.6416 27.3591 47.7216 27.2791 47.8016C26.7991 47.8016 26.3191 47.8816 25.9191 47.8816C23.9991 48.0416 21.9991 48.2016 20.0791 48.4416C18.8791 48.5216 17.6791 48.6816 16.4791 48.7616C14.7191 47.4816 12.9591 46.1216 11.2791 44.8416C11.1991 44.7616 11.1191 44.6816 11.1191 44.6016C11.1991 44.6016 12.7191 44.6016 14.9591 44.6016Z" fill="#A9ABDF"/>
<path id="Vector_25" d="M63.3594 38.841C64.8794 41.961 66.4794 45.081 67.9994 48.121C68.0794 48.361 68.1594 48.601 68.1594 48.841C68.2394 49.001 68.3194 49.241 68.4794 49.401C68.5594 49.561 68.7194 49.721 68.8794 49.721C68.9594 49.721 69.1994 49.481 69.1994 49.321C69.2794 49.161 69.2794 48.921 69.2794 48.681C69.2794 46.361 69.2794 43.961 69.2794 41.641C69.2794 41.001 69.4394 40.841 70.0794 40.921C71.0394 41.001 71.9994 41.161 72.8794 41.241C73.2794 41.321 73.7594 41.321 74.2394 41.321C74.3194 41.321 74.4794 41.321 74.5594 41.241C74.5594 41.161 74.6394 41.161 74.6394 41.081C74.1594 40.761 73.7594 40.441 73.2794 40.201C71.1994 39.081 68.9594 38.521 66.6394 38.201C66.1594 38.121 65.6794 38.121 65.2794 38.041C64.4794 38.121 63.9194 38.441 63.3594 38.841Z" fill="#50A5EF"/>
<path id="Vector_26" d="M69.2794 43.1618C69.2794 43.0018 69.2794 42.8418 69.3594 42.6818C69.3594 44.7618 69.3594 46.8418 69.3594 48.8418C69.3594 49.0018 69.3594 49.1618 69.2794 49.3218C69.2794 47.2418 69.2794 45.1618 69.2794 43.1618ZM74.2394 41.4818C73.8394 41.4818 73.3594 41.4818 72.8794 41.4018C72.7194 41.4018 72.6394 41.4018 72.4794 41.3218C70.5594 40.4418 68.5594 39.9618 66.4794 39.7218C65.9994 39.6418 65.5194 39.6418 65.1194 39.5618C64.6394 39.4818 64.1594 39.5618 63.8394 39.8018C63.6794 39.4818 63.5194 39.1618 63.3594 38.8418C63.9194 38.3618 64.4794 38.1218 65.1994 38.2818C65.6794 38.3618 66.0794 38.3618 66.5594 38.4418C68.8794 38.6818 71.1194 39.3218 73.1994 40.4418C73.6794 40.6818 74.0794 41.0018 74.5594 41.3218C74.5594 41.4018 74.4794 41.4018 74.4794 41.4818C74.4794 41.4818 74.3194 41.5618 74.2394 41.4818Z" fill="#69B2F1"/>
<path id="Vector_27" d="M70.6394 41.0813C70.6394 40.4413 70.7994 40.2812 71.4394 40.3612C72.1594 40.4412 72.9594 40.5213 73.6794 40.6013C73.9994 40.8413 74.3194 41.0013 74.6394 41.2413C74.6394 41.3213 74.5594 41.3213 74.5594 41.4013C74.4794 41.4013 74.3194 41.4813 74.2394 41.4813C73.8394 41.4813 73.3594 41.4813 72.8794 41.4013C72.1594 41.3213 71.3594 41.2413 70.6394 41.0813ZM64.7194 38.2812C66.2394 41.3213 67.7594 44.4413 69.2794 47.4813C69.2794 47.9613 69.2794 48.4413 69.2794 48.8413C69.2794 49.0813 69.2794 49.2413 69.1994 49.4813C69.1194 49.6413 68.9594 49.8813 68.8794 49.8813C68.7194 49.8813 68.5594 49.7212 68.4794 49.5612C68.3994 49.4012 68.3194 49.1613 68.1594 49.0013C68.1594 48.7613 68.1594 48.4413 67.9994 48.2813C66.4794 45.1613 64.9594 42.0413 63.3594 39.0013C63.7594 38.5213 64.2394 38.2812 64.7194 38.2812Z" fill="#418ED0"/>
<path id="Vector_28" d="M31.6789 44.1202C31.6789 44.5202 31.5989 44.7602 31.1989 44.7602H31.1189C31.0389 44.7602 30.9589 44.7602 30.8789 44.6802C30.1589 44.6002 29.6789 45.0002 29.2789 45.5602C28.7189 46.2802 28.0789 46.9202 27.5189 47.5602C27.4389 47.6402 27.4389 47.7202 27.3589 47.8002C27.3589 47.8802 27.2789 47.9602 27.2789 48.0402V48.1202C27.1989 48.8402 27.1189 49.5602 27.0389 50.2802C27.0389 50.5202 26.9589 50.6802 26.9589 50.9202C26.9589 51.0802 27.0389 51.3202 27.1189 51.4002C27.7589 51.9602 28.4789 52.6002 29.1989 53.1602C29.2789 53.2402 29.3589 53.3202 29.4389 53.4002C29.7589 53.6402 30.0789 53.7202 30.4789 53.5602C31.2789 53.1602 32.1589 52.7602 32.9589 52.3602C33.4389 52.2002 33.9189 52.0402 34.3989 52.0402C35.7589 52.0402 37.1189 52.1202 38.4789 52.2002C38.7989 52.2002 39.0389 52.1202 39.1989 51.8002C39.9989 50.3602 40.7189 49.0002 41.5189 47.5602C41.6789 47.2402 41.5989 47.0002 41.4389 46.6802C40.3189 45.0002 39.2789 43.3202 38.1589 41.5602C37.9989 41.2402 37.9189 41.0002 38.1589 40.6802C40.5589 36.9202 43.8389 34.4402 48.0789 33.2402C48.2389 33.1602 48.3989 33.1602 48.5589 33.0802V33.0002C47.8389 32.8402 47.1189 32.6802 46.3989 32.5202C45.3589 32.2802 44.3189 32.0402 43.3589 31.8002C43.2789 31.8002 43.1989 31.7202 43.0389 31.7202C41.9989 31.4802 40.8789 31.2402 39.8389 30.9202C38.9589 30.6802 38.2389 30.8402 37.4389 31.1602C36.3189 31.5602 35.2789 32.1202 34.2389 32.7602C34.0789 32.8402 33.9989 32.9202 33.8389 33.0002C33.5989 33.1602 33.3589 33.3202 33.1189 33.4802C32.7989 33.7202 32.3989 33.9602 32.0789 34.2002C31.6789 34.4402 31.3589 34.5202 30.9589 34.3602C29.0389 33.8002 27.0389 33.2402 25.1189 32.6802C25.0389 32.6802 24.9589 32.6802 24.8789 32.6002C25.5189 33.1602 26.2389 33.7202 26.8789 34.2002C28.0789 35.0802 29.3589 35.8802 30.6389 36.6802C30.7989 36.7602 30.8789 36.9202 31.0389 37.0002C30.8789 37.0802 30.7989 37.1602 30.7189 37.1602C29.3589 37.0802 27.9989 37.0002 26.6389 36.9202C26.3189 36.9202 26.0789 36.9202 25.7589 36.8402C25.5989 37.0002 25.4389 37.1602 25.2789 37.2402C26.3989 38.2802 27.5189 39.2402 28.6389 40.2002C29.1989 40.7602 29.7589 41.2402 30.3989 41.7202C31.0389 42.6002 31.5989 43.2402 31.6789 44.1202Z" fill="#747A94"/>
<path id="Vector_29" d="M38.9589 31.56C37.8389 31.96 36.7989 32.52 35.7589 33.16C35.5989 33.24 35.5189 33.32 35.3589 33.4C35.1189 33.56 34.8789 33.72 34.6389 33.88C34.3189 34.12 33.9189 34.36 33.5989 34.6C33.1989 34.84 32.8789 34.92 32.4789 34.76C32.1589 34.68 31.9189 34.6 31.5989 34.52C31.7589 34.52 31.9189 34.44 32.0789 34.28C32.3989 34.04 32.7989 33.8 33.1189 33.56C33.3589 33.4 33.5989 33.24 33.8389 33.08C33.9189 33 34.0789 32.92 34.2389 32.84C35.1989 32.2 36.3189 31.64 37.4389 31.24C38.2389 31 39.0389 30.84 39.8389 31C40.0789 31.08 40.3989 31.16 40.6389 31.16C40.0789 31.24 39.5189 31.4 38.9589 31.56ZM30.3989 42.04C29.8389 41.56 29.2789 41 28.6389 40.52C27.5189 39.56 26.3989 38.5199 25.2789 37.5599C25.4389 37.3999 25.5989 37.2399 25.7589 37.1599C26.0789 37.1599 26.3189 37.16 26.6389 37.24C27.9989 37.32 29.3589 37.4 30.7189 37.48C30.7989 37.48 30.8789 37.48 31.0389 37.32C30.8789 37.24 30.7989 37.08 30.6389 37C29.3589 36.28 28.0789 35.4 26.8789 34.52C26.1589 34.04 25.5189 33.48 24.8789 32.92C24.9589 32.92 25.0389 32.92 25.1189 33C25.5989 33.16 26.1589 33.32 26.6389 33.48C27.1989 33.96 27.7589 34.44 28.3989 34.84C29.5989 35.72 30.8789 36.52 32.1589 37.32C32.3189 37.4 32.3989 37.56 32.5589 37.64C32.3989 37.72 32.3189 37.8 32.2389 37.8C30.8789 37.72 29.5189 37.6399 28.1589 37.5599C27.8389 37.5599 27.5989 37.56 27.2789 37.48C27.1189 37.64 26.9589 37.8 26.7989 37.88C27.9189 38.92 29.0389 39.88 30.1589 40.84C30.7189 41.4 31.2789 41.8799 31.9189 42.36C32.5589 42.9199 33.1189 43.56 33.1989 44.52C33.1989 44.92 33.1189 45.1599 32.7189 45.1599H32.6389C32.5589 45.1599 32.4789 45.16 32.3989 45.08C31.6789 45 31.1989 45.3999 30.7989 45.9599C30.2389 46.6799 29.5989 47.3199 29.0389 47.9599C28.9589 48.0399 28.9589 48.12 28.8789 48.2C28.8789 48.28 28.7989 48.36 28.7989 48.44V48.52C28.7189 49.24 28.6389 49.9599 28.5589 50.68C28.5589 50.92 28.4789 51.08 28.4789 51.32C28.4789 51.48 28.5589 51.72 28.6389 51.8C29.2789 52.36 29.9989 52.92 30.6389 53.4799C30.5589 53.4799 30.5589 53.5599 30.4789 53.5599C30.0789 53.7199 29.7589 53.72 29.4389 53.4C29.3589 53.32 29.2789 53.2399 29.1989 53.1599C28.4789 52.5999 27.8389 52.04 27.1189 51.4C27.0389 51.32 26.8789 51.08 26.9589 50.92C26.9589 50.68 26.9589 50.52 27.0389 50.28C27.1189 49.5599 27.1989 48.84 27.2789 48.12V48.04C27.2789 47.96 27.3589 47.88 27.3589 47.8C27.3589 47.72 27.4389 47.6399 27.5189 47.5599C28.0789 46.8399 28.7189 46.2799 29.2789 45.5599C29.6789 44.9999 30.1589 44.5999 30.8789 44.6799C30.9589 44.6799 31.0389 44.6799 31.1189 44.7599H31.1989C31.5989 44.7599 31.7589 44.52 31.6789 44.12C31.5989 43.24 31.0389 42.6 30.3989 42.04Z" fill="#8087A0"/>
<path id="Vector_30" d="M28.4789 34.1218C27.4389 33.8018 26.3989 33.4818 25.3589 33.1618C25.1989 33.0018 25.0389 32.9218 24.8789 32.7618C24.9589 32.7618 25.0389 32.7618 25.1189 32.8418C26.4789 33.2418 27.9189 33.6418 29.2789 34.0418C29.0389 34.2018 28.7989 34.2018 28.4789 34.1218ZM30.4789 51.8818C30.9589 51.7218 31.4389 51.5618 31.9189 51.5618C33.2789 51.5618 34.6389 51.6418 35.9989 51.7218C36.3189 51.7218 36.5589 51.6418 36.7189 51.3218C37.5189 49.8818 38.2389 48.5218 39.0389 47.0818C39.1989 46.7618 39.1189 46.5218 38.9589 46.2018C37.8389 44.5218 36.7989 42.8418 35.6789 41.0818C35.5189 40.7618 35.4389 40.5218 35.6789 40.2018C38.0789 36.4418 41.3589 33.9618 45.5989 32.7618C45.7589 32.6818 45.9189 32.6818 46.0789 32.6018V32.5218C45.3589 32.3618 44.6389 32.2018 43.9189 32.0418C42.8789 31.8018 41.8389 31.5618 40.8789 31.3218C40.7989 31.3218 40.7189 31.2418 40.5589 31.2418C39.9989 31.0818 39.5189 31.0018 38.9589 30.8418C39.2789 30.8418 39.5189 30.8418 39.8389 30.9218C40.8789 31.1618 41.9989 31.4818 43.0389 31.7218C43.1189 31.7218 43.1989 31.7218 43.3589 31.8018C44.3989 32.0418 45.4389 32.2818 46.3989 32.5218C47.1189 32.6818 47.8389 32.8418 48.5589 33.0018V33.0818C48.3989 33.0818 48.2389 33.1618 48.0789 33.2418C43.8389 34.4418 40.5589 36.9218 38.1589 40.6818C37.9989 41.0018 37.9989 41.2418 38.1589 41.5618C39.2789 43.2418 40.3189 44.9218 41.4389 46.6818C41.5989 47.0018 41.6789 47.2418 41.5189 47.5618C40.7989 49.0018 39.9989 50.4418 39.1989 51.8818C39.0389 52.2018 38.7989 52.2818 38.4789 52.2818C37.1189 52.2018 35.7589 52.1218 34.3989 52.1218C33.9189 52.1218 33.4389 52.2018 32.9589 52.4418C32.0789 52.7618 31.2789 53.2418 30.4789 53.6418C30.0789 53.8018 29.7589 53.8018 29.4389 53.4818C29.3589 53.4018 29.2789 53.3218 29.1989 53.2418C29.0389 53.0818 28.8789 52.9218 28.6389 52.7618C29.1989 52.4418 29.8389 52.1218 30.4789 51.8818Z" fill="#585C77"/>
<path id="Vector_31" d="M14.7188 49.5609C14.7188 50.0409 14.7988 50.4409 14.7988 50.9209C14.7988 51.3209 15.0387 51.4809 15.4387 51.4009C18.0787 51.1609 20.7188 50.9209 23.3588 50.6809C24.5588 50.6009 25.7587 50.5209 26.8787 50.3609C26.9587 49.6409 27.0388 48.9209 27.1188 48.2009V48.1209C27.1188 48.0409 27.1988 47.9609 27.1988 47.8809C26.7188 47.8809 26.2388 47.9609 25.8388 47.9609C23.9188 48.1209 21.9188 48.2809 19.9988 48.5209C18.7988 48.6009 17.5988 48.7609 16.3988 48.8409C15.9988 48.8409 15.5988 48.9209 15.1988 48.9209C14.8788 49.0009 14.7188 49.0809 14.7188 49.5609Z" fill="#B9BAEA"/>
<path id="Vector_32" d="M15.0387 48.9999C15.0387 49.1599 15.0387 49.3199 15.0387 49.4799C15.0387 49.8799 15.2788 50.0399 15.6788 49.9599C18.3188 49.7199 20.9588 49.4799 23.5988 49.2399C24.7188 49.1599 25.9187 49.0799 27.0387 48.9199C26.9587 49.3999 26.8787 49.8799 26.8787 50.3599C25.6787 50.4399 24.4788 50.5199 23.3588 50.6799C20.7188 50.9199 18.0787 51.1599 15.4387 51.3999C15.0387 51.3999 14.8788 51.2399 14.7988 50.9199C14.7188 50.5199 14.7188 50.0399 14.7188 49.5599C14.7188 49.2399 14.7987 49.0799 15.0387 48.9999Z" fill="#A9ABDF"/>
<path id="Vector_33" d="M28 53.8008V53.8808C28.32 53.8808 28.72 53.9608 29.04 53.9608C32.16 54.1208 35.2 54.2808 38.32 54.4408C41.52 54.6008 44.64 54.8408 47.84 55.0008C50.08 55.1608 52.32 55.2408 54.64 55.4008C54.72 55.4008 54.8 55.4008 54.88 55.4008C55.44 55.4008 55.52 55.3208 55.36 54.7608C54.64 53.0008 54 51.1608 53.2 49.4008C52.96 48.8408 53.04 48.3608 53.28 47.8008C55.04 44.5208 57.44 41.8008 60.32 39.3208C60.56 39.0808 60.8 38.9208 61.04 38.6808C61.6 38.2808 62.08 37.8808 62.64 37.4808C64.08 36.4408 65.6 35.5608 67.12 34.6808C67.6 34.4408 68.08 34.3608 68.64 34.5208C69.6 34.7608 70.48 34.6008 71.36 34.2808C71.52 34.2008 71.6 34.0408 71.6 33.8808C71.84 32.6808 71.52 31.5608 71.12 30.5208C70.32 28.4408 69.04 26.6008 67.68 24.8408C65.84 22.5208 63.84 20.3608 61.68 18.2808C61.2 17.8008 60.96 17.8008 60.4 18.2008C60 18.4408 59.6 18.6808 59.28 19.0008C58.56 19.7208 58.56 20.3608 59.36 21.0008C60.72 22.0408 62 23.1608 62.96 24.5208C63.04 24.6008 63.12 24.7608 63.2 24.8408C63.6 25.4808 63.92 26.2008 64.08 27.0008C64.32 28.4408 63.36 29.5608 61.92 29.5608C60.72 29.5608 59.6 29.4008 58.48 29.2408C57.92 29.1608 57.36 29.0008 56.8 28.9208C55.52 28.6808 54.24 28.3608 52.96 28.1208C52.72 28.0408 52.48 28.0408 52.24 27.9608H52.16C52 27.9608 51.92 27.9608 51.76 27.9608C49.2 28.6808 46.64 29.3208 44.08 30.0408C43.68 30.1208 43.36 30.4408 43.28 30.8408C43.2 31.1608 43.12 31.4008 42.96 31.7208C43.04 31.7208 43.12 31.7208 43.28 31.8008C44.32 32.0408 45.36 32.2808 46.32 32.5208C47.04 32.6808 47.76 32.8408 48.48 33.0008V33.0808C48.32 33.0808 48.16 33.1608 48 33.2408C43.76 34.4408 40.48 36.9208 38.08 40.6808C37.92 41.0008 37.92 41.2408 38.08 41.5608C39.2 43.2408 38 45.0808 39.12 46.7608C39.28 47.0808 39.44 47.9608 39.28 48.2808C38.48 49.7208 39.92 50.3608 39.12 51.8008C38.96 52.1208 38.72 52.2008 38.4 52.2008C37.04 52.1208 35.68 52.0408 34.32 52.0408C33.84 52.0408 33.36 52.1208 32.88 52.3608C32 52.6808 31.2 53.1608 30.4 53.5608C30 53.7208 29.68 53.7208 29.36 53.4008C29.28 53.3208 29.2 53.2408 29.12 53.1608C28.88 53.3208 28.56 53.4008 28.32 53.5608C28.24 53.6408 28.08 53.7208 28 53.8008Z" fill="#50A5EF"/>
<path id="Vector_34" d="M37.9192 52.6808C37.7592 53.0008 37.5192 53.0808 37.1992 53.0808C35.8392 53.0008 34.4792 52.9208 33.1192 52.9208C32.6392 52.9208 32.1592 53.0008 31.6792 53.2408C31.1192 53.4808 30.5592 53.7208 29.9992 54.0408C29.7592 54.0408 29.4392 54.0408 29.1992 53.9608C28.8792 53.9608 28.4792 53.8808 28.1592 53.8808V53.8008C28.2392 53.7208 28.3992 53.6408 28.4792 53.6408C28.7192 53.4808 29.0392 53.4008 29.2792 53.2408C29.3592 53.3208 29.4392 53.4008 29.5192 53.4808C29.8392 53.7208 30.1592 53.8008 30.5592 53.6408C31.3592 53.2408 32.2392 52.8408 33.0392 52.4408C33.5192 52.2808 33.9992 52.1208 34.4792 52.1208C35.7592 52.1208 36.9592 52.2008 38.2392 52.2808C38.0792 52.4408 37.9992 52.5208 37.9192 52.6808ZM62.0792 29.7208C62.2392 29.7208 62.3992 29.7208 62.4792 29.6408C62.0792 30.2008 61.4392 30.5208 60.7192 30.5208C59.5192 30.5208 58.3992 30.3608 57.2792 30.2008C56.7192 30.1208 56.1592 29.9608 55.5992 29.8808C54.3192 29.6408 53.0392 29.3208 51.7592 29.0808C51.5192 29.0008 51.2792 29.0008 51.0392 28.9208H50.9592C50.7992 28.9208 50.7192 28.9208 50.5592 28.9208C48.1592 29.5608 45.7592 30.2008 43.4392 30.8408C43.5992 30.4408 43.8392 30.2808 44.2392 30.1208C46.7992 29.4008 49.3592 28.7608 51.9192 28.0408C52.0792 28.0408 52.1592 27.9608 52.3192 28.0408H52.3992C52.6392 28.1208 52.8792 28.1208 53.1192 28.2008C54.3992 28.4408 55.6792 28.7608 56.9592 29.0008C57.5192 29.0808 58.0792 29.2408 58.6392 29.3208C59.7592 29.5608 60.9592 29.7208 62.0792 29.7208ZM42.9592 35.8008C44.0792 35.0008 45.2792 34.3608 46.6392 33.8808C46.7992 33.9608 47.0392 33.9608 47.1992 34.0408V34.1208C47.0392 34.1208 46.8792 34.2008 46.7192 34.2808C45.3592 34.6008 44.0792 35.1608 42.9592 35.8008ZM69.8392 31.4008C69.0392 29.3208 67.7592 27.4808 66.3992 25.7208C64.5592 23.4008 62.5592 21.2408 60.3992 19.1608C60.0792 18.9208 59.9192 18.7608 59.7592 18.7608C59.9992 18.6008 60.2392 18.3608 60.5592 18.2008C61.1192 17.8008 61.2792 17.8008 61.8392 18.2808C63.9992 20.3608 65.9992 22.4408 67.8392 24.8408C69.1992 26.6008 70.4792 28.4408 71.2792 30.5208C71.6792 31.5608 71.9992 32.6808 71.7592 33.8808C71.7592 34.0408 71.5992 34.2008 71.5192 34.2808C71.1992 34.4408 70.7992 34.5208 70.4792 34.6008C70.4792 33.4808 70.2392 32.4408 69.8392 31.4008ZM51.8392 50.2008C51.5992 49.6408 51.6792 49.1608 51.9192 48.6008C53.6792 45.3208 56.0792 42.6008 58.9592 40.1208C59.1992 39.8808 59.4392 39.7208 59.6792 39.4808C60.2392 39.0808 60.7192 38.6808 61.2792 38.2808C62.1592 37.6408 63.1192 37.0808 64.0792 36.4408C63.5992 36.7608 63.1192 37.0808 62.6392 37.4008C62.0792 37.8008 61.5192 38.2008 61.0392 38.6008C60.7992 38.7608 60.5592 39.0008 60.3192 39.2408C57.4392 41.6408 55.0392 44.4408 53.2792 47.7208C52.9592 48.2808 52.9592 48.6808 53.1992 49.3208C53.9192 51.0808 54.6392 52.9208 55.3592 54.6808C55.5192 55.1608 55.4392 55.3208 54.8792 55.3208C54.7992 55.3208 54.7192 55.3208 54.6392 55.3208C54.3992 55.3208 54.1592 55.3208 53.9192 55.2408C53.1992 53.6408 52.5592 51.9608 51.8392 50.2008Z" fill="#418ED0"/>
<path id="Vector_35" d="M61.7589 18.3609C63.1189 19.6409 64.3989 21.0009 65.5989 22.3609V22.4409C65.8389 23.8809 64.8789 25.0009 63.4389 25.0009C63.4389 25.0009 63.4389 24.9209 63.3589 24.9209C63.2789 24.7609 63.1989 24.6809 63.1189 24.6009C62.1589 23.2409 60.7989 22.1209 59.5189 21.0809C58.7189 20.4409 58.6389 19.8009 59.4389 19.0809C59.7589 18.7609 60.1589 18.5209 60.5589 18.2809C61.1189 17.8809 61.2789 17.8809 61.7589 18.3609ZM40.2389 38.1209C41.1189 39.4809 41.9189 40.7609 42.7989 42.1209C42.9589 42.4409 43.0389 42.6809 42.8789 43.0009C42.3189 44.1209 41.6789 45.1609 41.1189 46.2809C40.1589 44.7609 39.1989 43.2409 38.1589 41.7209C37.9989 41.4009 37.9189 41.1609 38.1589 40.8409C38.7989 39.8009 39.4389 38.9209 40.2389 38.1209ZM43.2789 31.9609C43.1989 31.9609 43.1189 31.9609 43.0389 31.8809C43.1189 31.5609 43.2789 31.2409 43.3589 31.0009C43.5189 30.6009 43.7589 30.3609 44.1589 30.2009C45.6789 29.8009 47.2789 29.4009 48.7989 29.0009C46.7189 29.6409 44.8789 30.6009 43.2789 31.9609ZM54.5589 44.7609C54.3189 44.2009 54.3989 43.7209 54.6389 43.1609C56.3989 39.8809 58.7989 37.1609 61.6789 34.6809C61.9189 34.4409 62.1589 34.2809 62.3989 34.0409C62.9589 33.6409 63.4389 33.2409 63.9989 32.8409C65.4389 31.8009 66.9589 30.9209 68.4789 30.0409C68.9589 29.8009 69.4389 29.7209 69.9989 29.8809C70.3189 29.9609 70.5589 29.9609 70.8789 29.9609C70.9589 30.1209 71.0389 30.3609 71.1189 30.5209C71.5189 31.5609 71.8389 32.6809 71.5989 33.8809C71.5989 34.0409 71.4389 34.2009 71.3589 34.2809C70.4789 34.6809 69.5989 34.7609 68.6389 34.5209C68.0789 34.3609 67.5989 34.4409 67.1189 34.6809C65.5189 35.4809 64.0789 36.4409 62.6389 37.4809C62.0789 37.8809 61.5189 38.2809 61.0389 38.6809C60.7989 38.8409 60.5589 39.0809 60.3189 39.3209C58.2389 41.0809 56.3189 43.0809 54.7989 45.3209C54.7189 45.1609 54.6389 44.9209 54.5589 44.7609ZM28.3189 53.5609C28.5589 53.4009 28.8789 53.3209 29.1189 53.1609C29.1989 53.2409 29.2789 53.3209 29.3589 53.4009C29.6789 53.6409 29.9989 53.7209 30.3989 53.5609C31.1989 53.1609 32.0789 52.7609 32.8789 52.3609C33.3589 52.2009 33.8389 52.0409 34.3189 52.0409C35.6789 52.0409 37.0389 52.1209 38.3989 52.2009C38.7189 52.2009 38.9589 52.1209 39.1189 51.8009C39.5189 51.1609 39.8389 50.4409 40.2389 49.8009C43.1989 49.9609 46.1589 50.1209 49.1189 50.2809C50.6389 50.3609 52.0789 50.4409 53.5989 50.5209C54.1589 51.8809 54.7189 53.3209 55.2789 54.6809C55.4389 55.1609 55.3589 55.3209 54.7989 55.3209C54.7189 55.3209 54.6389 55.3209 54.5589 55.3209C52.3189 55.1609 50.0789 55.0809 47.7589 54.9209C44.5589 54.7609 41.4389 54.5209 38.2389 54.3609C35.1989 54.2009 32.0789 54.0409 28.9589 53.8809C28.6389 53.8809 28.2389 53.8009 27.9189 53.8009V53.7209C28.0789 53.7209 28.2389 53.6409 28.3189 53.5609Z" fill="#418ED0"/>
<path id="Vector_36" d="M2.23926 39.4805L2.31926 39.5605C2.71926 39.2405 3.11926 38.9205 3.43926 38.5205C4.63926 37.1605 5.91926 35.8005 7.11926 34.4405C8.95926 32.3605 10.8793 30.5205 13.4393 29.1605C12.8793 29.0005 12.3193 28.7605 11.7593 28.6005C11.1993 28.4405 10.6393 28.2005 10.1593 27.8805C9.99926 27.8005 9.75926 27.6405 9.59926 27.4805C7.11926 31.5605 4.95926 35.6405 2.23926 39.4805Z" fill="#747A94"/>
<path id="Vector_37" d="M10.7998 29.9605C10.2398 29.8005 9.6798 29.5605 9.1998 29.2405C9.0398 29.1605 8.8798 29.0805 8.7998 28.9205C9.1198 28.4405 9.3598 27.9605 9.6798 27.4805C9.83981 27.6405 10.0798 27.7205 10.2398 27.8805C10.7198 28.2005 11.2798 28.4405 11.8398 28.6005C12.3998 28.7605 12.9598 28.9205 13.5198 29.1605C12.8798 29.4805 12.3198 29.8805 11.7598 30.2005C11.3598 30.2005 11.0398 30.0405 10.7998 29.9605Z" fill="#8087A0"/>
<path id="Vector_38" d="M20.7197 39.8806C20.7197 40.2806 20.7997 40.7606 20.8797 41.2406C20.9597 41.7206 21.1197 41.8006 21.5997 41.8806C22.7997 41.9606 23.9197 41.6406 25.1197 41.3206C26.3197 41.0806 27.5197 40.7606 28.7197 40.5206C27.5997 39.5606 26.4797 38.5206 25.3597 37.5606C25.0397 37.8806 24.7197 38.1206 24.3997 38.4406C23.9997 38.8406 23.5197 39.1606 23.0397 39.4806C22.4797 39.8806 21.9197 39.6406 21.3597 39.5606C20.8797 39.3206 20.7197 39.4806 20.7197 39.8806ZM56.9597 29.0806C58.6397 29.4006 60.3997 29.7206 62.0797 29.7206C63.5197 29.7206 64.4797 28.5206 64.2397 27.1606C64.0797 26.3606 63.8397 25.7206 63.3597 25.0006C63.2797 24.8406 63.1997 24.7606 63.1197 24.6806C62.4797 25.4006 61.8397 26.0406 61.1997 26.7606C60.9597 27.0806 60.9597 27.3206 61.1197 27.7206C61.3597 28.0406 61.2797 28.2006 60.8797 28.2006H60.1597C59.6797 27.2406 59.1197 26.0406 58.8797 25.6406C58.7197 25.3206 58.5597 25.0006 58.3997 24.6006C58.3997 24.5206 58.3997 24.4406 58.3997 24.3606C58.6397 23.3206 57.9997 22.5206 56.9597 22.6806C56.4797 22.7606 56.0797 22.7606 55.5997 22.9206C55.3597 23.0006 55.1197 23.2406 54.8797 23.4806C54.7197 23.5606 54.6397 23.7206 54.4797 23.7206C53.8397 23.8006 53.1997 23.8806 52.5597 23.9606C52.1597 24.0406 51.9197 24.2806 51.9997 24.6806C51.9997 25.0806 52.3197 25.2406 52.7197 25.2406C53.3597 25.1606 54.0797 25.0806 54.7197 25.0006C54.8797 25.0006 55.1197 25.0006 55.2797 25.1606C55.5997 25.4006 55.9197 25.4806 56.2397 25.3206C56.4797 25.2406 56.6397 25.3206 56.7197 25.5606C56.8797 25.9606 58.2397 28.6006 58.6397 29.4806" fill="#B9BAEA"/>
<path id="Vector_39" d="M58.399 29.3216C58.479 29.3216 58.559 29.3216 58.639 29.3216H58.399ZM58.399 29.3216C57.919 29.2416 57.439 29.1616 56.959 29.0816L58.399 29.3216ZM61.279 26.6816C61.279 26.7616 61.359 26.7616 61.359 26.8416C61.599 27.1616 61.519 27.3216 61.119 27.3216C61.039 27.0816 61.039 26.9216 61.279 26.6816ZM58.719 28.6016C59.839 28.7616 61.039 28.9216 62.159 28.9216C63.199 28.9216 63.919 28.3616 64.239 27.4816C64.239 28.7616 63.359 29.6416 62.079 29.7216C60.879 29.7216 59.759 29.5616 58.639 29.4016C58.559 29.1616 58.399 28.9216 58.239 28.5216C58.319 28.5216 58.479 28.5216 58.559 28.6016H58.719Z" fill="#A9ABDF"/>
<path id="Vector_40" d="M52.1589 23.9609C52.2389 24.2009 52.4789 24.2809 52.7989 24.2809C53.4389 24.2009 54.1589 24.1209 54.7989 24.0409C54.9589 24.0409 55.1989 24.0409 55.3589 24.2009C55.6789 24.4409 55.9989 24.5209 56.3189 24.3609C56.5589 24.2809 56.7189 24.3609 56.7989 24.6009C56.9589 25.0009 58.3189 27.6409 58.7189 28.5209C58.6389 28.5209 58.5589 28.5209 58.4789 28.5209L58.1589 28.4409C57.5989 27.3209 56.7989 25.6409 56.6389 25.4009C56.5589 25.1609 56.3989 25.0809 56.1589 25.1609C55.8389 25.2409 55.4389 25.1609 55.1989 25.0009C55.0389 24.9209 54.8789 24.8409 54.6389 24.8409C53.9989 24.9209 53.2789 25.0009 52.6389 25.0809C52.2389 25.1609 51.9989 24.9209 51.9189 24.5209C51.9189 24.2809 51.9989 24.1209 52.1589 23.9609Z" fill="#A9ABDF"/>
<path id="Vector_41" d="M61.1191 38.7604C61.2791 39.1604 61.5191 39.5604 61.7591 39.9604C61.9191 40.2004 61.9991 40.4404 62.1591 40.6804C62.3191 41.0804 62.5591 41.4804 62.7191 41.8804C62.8791 42.1204 62.9591 42.3604 63.1191 42.6004C63.4391 43.2404 63.7591 43.8804 64.0791 44.4404C64.7991 45.8804 65.5191 47.3204 66.2391 48.7604C66.3991 49.0804 66.6391 49.4004 66.9591 49.5604C67.5191 49.8804 68.1591 49.5604 68.2391 48.8404V48.7604C68.2391 48.5204 68.2391 48.2004 68.0791 48.0404C66.5591 44.9204 65.0391 41.8004 63.4391 38.7604C63.1991 38.2804 63.0391 37.8804 62.7991 37.4004C62.1591 37.9604 61.5991 38.3604 61.1191 38.7604Z" fill="#B9BAEA"/>
<path id="Vector_42" d="M67.68 49.5607V49.4807C67.68 49.2407 67.68 48.9207 67.52 48.7607C66 45.6407 64.48 42.5207 62.88 39.4807C62.64 39.0007 62.48 38.6007 62.24 38.1207C61.84 38.3607 61.52 38.6807 61.12 39.0007C61.12 39.0007 61.12 38.9207 61.04 38.9207C61.6 38.5207 62.08 38.1207 62.64 37.7207C62.88 38.2007 63.12 38.6007 63.28 39.0807C64.8 42.2007 66.4 45.3207 67.92 48.3607C68 48.6007 68.08 48.8407 68.08 49.0807V49.0007C68.08 49.4007 67.84 49.6407 67.6 49.8007C67.68 49.7207 67.68 49.6407 67.68 49.5607Z" fill="#CBCDF7"/>
<path id="Vector_43" d="M61.84 38.2012C62 38.6012 62.24 39.0012 62.4 39.4012C62.56 39.6412 62.64 39.8812 62.8 40.1212C62.96 40.5212 63.2 40.9212 63.36 41.3212C63.52 41.5612 63.6 41.8012 63.76 42.0412C64.08 42.6812 64.4 43.3212 64.72 43.8812C65.44 45.3212 66.16 46.7612 66.88 48.2012C67.04 48.5212 67.28 48.8412 67.6 49.0012C67.76 49.0812 67.92 49.1612 68.08 49.1612C67.92 49.7212 67.36 49.9612 66.88 49.6412C66.56 49.4812 66.32 49.1612 66.16 48.8412C65.44 47.4012 64.72 45.9612 64 44.5212C63.68 43.8812 63.36 43.2412 63.04 42.6812C62.88 42.4412 62.8 42.2012 62.64 41.9612C62.48 41.5612 62.24 41.1612 62.08 40.7612C61.92 40.5212 61.84 40.2812 61.68 40.0412C61.52 39.6412 61.28 39.2412 61.04 38.8412C61.36 38.6012 61.6 38.3612 61.84 38.2012Z" fill="#A9ABDF"/>
<path id="Vector_44" d="M57.4395 46.9199C57.4395 47.0799 57.4395 47.2399 57.5195 47.3199C57.5995 47.3999 57.8395 47.3999 57.9195 47.3199C58.5595 46.8399 59.1994 46.4399 59.7594 45.8799C60.3194 45.3999 60.6395 44.7599 61.1995 44.2799C61.7595 43.7199 62.3995 43.3199 63.0395 42.8399C62.8795 42.5999 62.7995 42.3599 62.6395 42.1199C62.4795 41.7199 62.2394 41.3199 62.0794 40.9199C61.6794 41.2399 61.2794 41.5599 60.8794 41.9599C60.0794 42.6799 59.4395 43.4799 58.6395 44.1999C57.9995 44.7599 57.8395 45.6399 57.5995 46.3599C57.5195 46.4399 57.4395 46.6799 57.4395 46.9199Z" fill="#50A5EF"/>
<path id="Vector_45" d="M57.4394 46.6817C58.1594 46.2017 58.7994 45.7217 59.3594 45.1617C59.9194 44.6817 60.2394 44.0417 60.7994 43.5617C61.3594 43.0017 61.9994 42.6017 62.6394 42.1217C62.4794 41.8817 62.3994 41.6417 62.2394 41.4017C62.1594 41.1617 62.0794 41.0017 61.9194 40.8417C61.9194 40.8417 61.9194 40.8417 61.9994 40.7617C62.1594 41.1617 62.3994 41.5617 62.5594 41.9617C62.7194 42.2017 62.7994 42.4417 62.9594 42.6817C62.3194 43.1617 61.6794 43.6417 61.1194 44.1217C60.5594 44.6017 60.2394 45.2417 59.6794 45.7217C59.1194 46.2817 58.4794 46.6817 57.8394 47.1617C57.7594 47.2417 57.5194 47.2417 57.4394 47.1617C57.3594 47.0817 57.3594 46.9217 57.3594 46.7617C57.4394 46.8417 57.4394 46.7617 57.4394 46.6817Z" fill="#418ED0"/>
<path id="Vector_46" d="M57.4399 46.9218C57.4399 46.6818 57.5198 46.4418 57.5998 46.2818C57.8398 45.5618 58.0799 44.6818 58.6399 44.1218C59.3599 43.4018 60.0798 42.6018 60.8798 41.8818C61.2798 41.4818 61.6798 41.1618 62.0798 40.8418C62.1598 41.0818 62.3198 41.3218 62.3998 41.5618C62.0798 41.8818 61.6798 42.1218 61.3598 42.4418C60.5598 43.1618 59.9199 43.9618 59.1199 44.6818C58.4799 45.2418 58.3198 46.1218 58.0798 46.8418C57.9998 46.9218 57.9998 47.0818 57.9998 47.1618C57.9198 47.1618 57.9199 47.2418 57.8399 47.2418C57.7599 47.3218 57.5199 47.3218 57.4399 47.2418C57.4399 47.2418 57.3599 47.0018 57.4399 46.9218Z" fill="#69B2F1"/>
<g id="Group_5">
<path id="Vector_47" d="M22.3193 30.1211C22.9593 31.0011 23.7593 31.8011 24.5593 32.5211C24.6393 32.6011 24.7193 32.6811 24.8793 32.7611C24.9593 32.7611 25.0393 32.7611 25.1193 32.8411C27.0393 33.4011 29.0393 33.9611 30.9593 34.5211C31.3593 34.6811 31.7593 34.6011 32.0793 34.3611C32.3993 34.1211 32.7993 33.8811 33.1193 33.6411C33.3593 33.4811 33.5993 33.3211 33.8393 33.1611C33.9193 33.0811 34.0793 33.0011 34.2393 32.9211C33.7593 32.6011 33.2793 32.2011 32.7993 31.8811C32.8793 31.7211 32.7193 31.1611 32.7193 30.9211C32.5593 30.9211 32.1593 31.1611 31.9193 31.2411C31.5993 31.2411 31.5193 31.3211 31.1993 31.3211C28.1593 31.4811 25.5193 31.4011 22.7193 30.2011C22.6393 30.2811 22.4793 30.2011 22.3193 30.1211Z" fill="#747A94"/>
<path id="Vector_48" d="M32.7993 31.801C32.5593 31.881 32.3193 32.041 32.1593 32.041C31.8393 32.041 31.7593 32.121 31.4393 32.121C28.4793 32.281 25.8393 32.201 23.1193 31.081C22.7993 30.761 22.5593 30.441 22.3193 30.041C22.4793 30.121 22.6393 30.121 22.7193 30.201C25.5193 31.401 28.2393 31.481 31.1993 31.321C31.5193 31.321 31.5993 31.241 31.9193 31.241C32.0793 31.241 32.4793 31.001 32.7193 30.921C32.7193 31.161 32.7993 31.561 32.7993 31.801ZM33.7593 33.241C33.5193 33.081 33.2793 32.841 32.9593 32.681C32.9593 32.601 32.9593 32.281 32.8793 32.041C33.2793 32.361 33.6793 32.601 34.1593 32.921C33.9993 33.001 33.9193 33.081 33.7593 33.161C33.8393 33.241 33.8393 33.241 33.7593 33.241Z" fill="#8087A0"/>
<path id="Vector_49" d="M22.7993 30.2811C23.3593 30.5211 23.8393 30.6811 24.3993 30.8411C24.4793 30.9211 24.6393 31.0811 24.7193 31.1611C24.7993 31.2411 24.8793 31.3211 25.0393 31.4011C25.1193 31.4011 25.1993 31.4011 25.2793 31.4811C27.1993 32.0411 29.1993 32.6011 31.1193 33.1611C31.5193 33.3211 31.9193 33.2411 32.2393 33.0011C32.5593 32.7611 32.9593 32.5211 33.2793 32.2811C33.5993 32.5211 33.9193 32.7611 34.2393 32.9211C34.0793 33.0011 33.9993 33.0811 33.8393 33.1611C33.5993 33.3211 33.3593 33.4811 33.1193 33.6411C32.7993 33.8811 32.3993 34.1211 32.0793 34.3611C31.6793 34.6011 31.3593 34.6811 30.9593 34.5211C29.0393 33.9611 27.0393 33.4011 25.1193 32.8411C25.0393 32.8411 24.9593 32.8411 24.8793 32.7611C24.7993 32.6811 24.7193 32.6011 24.5593 32.5211C23.7593 31.8011 22.9593 31.0011 22.3193 30.1211C22.4793 30.2011 22.6393 30.2811 22.7993 30.2811Z" fill="#585C77"/>
</g>
</g>
<g id="Group_6">
<path id="Vector_50" d="M40.5602 33.3205C40.5602 32.7605 40.0802 32.2005 39.6802 31.8805C38.6402 31.0805 37.6802 30.2805 36.6402 29.4805C36.4802 29.6405 36.3202 29.8005 36.1602 29.9605C37.6002 31.0805 39.1202 32.2005 40.5602 33.3205ZM43.4402 24.6805C43.2002 24.2805 42.8802 23.8805 42.6402 23.5605C42.5602 23.6405 42.5602 23.6405 42.4802 23.7205C43.2802 25.1605 44.0802 26.6805 45.1202 27.5605C44.5602 26.6005 44.0002 25.5605 43.4402 24.6805Z" fill="#FDE0C2"/>
<path id="Vector_51" d="M45.4398 20.1208C45.9198 21.0808 46.5598 21.5608 47.4398 21.6408C46.1598 19.2408 44.7998 16.9208 43.4398 14.6008C43.4398 14.5208 43.3598 14.5208 43.3598 14.4408C42.6398 14.1208 41.9998 13.7208 41.4398 13.0808C42.7998 15.4008 44.2398 17.7208 45.4398 20.1208ZM41.0398 12.6008C40.8798 12.4408 40.7998 12.2008 40.6398 12.0408C40.3198 11.8808 39.9998 11.8008 39.6798 11.8008C40.1598 12.1208 40.5598 12.4408 41.0398 12.6008ZM30.6398 33.3208C28.7198 32.4408 26.6398 31.1608 24.7998 29.9608C25.1998 30.4408 25.6798 30.9208 26.3198 31.3208C28.3198 32.5208 30.6398 34.0408 32.7998 35.0008C33.0398 35.0808 33.1998 35.1608 33.3598 35.2408C33.1198 34.3608 32.3998 34.0408 30.6398 33.3208Z" fill="#FFBC8A"/>
<path id="Vector_52" d="M50.2401 9.6417C50.2401 12.3617 48.0001 14.6817 45.2001 14.7617C44.5601 14.7617 43.9201 14.6817 43.3601 14.4417C42.2401 13.9617 41.2801 13.1617 40.7201 12.1217C40.3201 11.4017 40.1601 10.6817 40.0801 9.8017C40.0801 7.0817 42.3201 4.7617 45.1201 4.6817C47.8401 4.6017 50.1601 6.9217 50.2401 9.6417Z" fill="#50A5EF"/>
<path id="Vector_53" d="M45.92 7.72156C47.68 7.72156 49.28 8.68156 50.16 10.0416C50.16 9.88156 50.16 9.80156 50.16 9.64156C50.16 6.92156 47.76 4.60156 45.04 4.60156C42.32 4.60156 40 7.00156 40 9.72156C40 10.5216 40.24 11.3216 40.64 12.0416C40.72 12.2016 40.8 12.2816 40.88 12.4416C41.12 9.88156 43.36 7.72156 45.92 7.72156Z" fill="#69B2F1"/>
<path id="Vector_54" d="M49.5201 7.24023C49.5201 9.96023 47.2801 12.2802 44.4801 12.3602C43.8401 12.3602 43.2001 12.2802 42.6401 12.0402C41.6001 11.6402 40.7201 10.8402 40.0801 9.88024C40.0801 10.6802 40.3201 11.4802 40.6401 12.2002C41.2001 13.2402 42.1601 14.1202 43.2801 14.5202C43.8401 14.7602 44.4801 14.8402 45.1201 14.8402C47.9201 14.8402 50.1601 12.4402 50.1601 9.72023C50.2401 8.76023 49.9201 7.96023 49.5201 7.24023Z" fill="#418ED0"/>
<path id="Vector_55" d="M57.3602 25.6398C57.4402 26.3598 57.1202 27.0798 56.6402 27.5598C56.1602 28.0398 55.6002 28.2798 54.8802 28.2798H52.3202C50.0802 28.2798 47.4402 28.9198 45.6802 27.9598C43.9202 26.9998 43.0402 24.4398 41.7602 22.5998C41.5202 22.1998 41.2002 21.7998 40.9602 21.4798C38.8002 23.6398 36.7202 25.7198 34.5602 27.8798C36.1602 29.1598 37.9202 30.4398 39.6802 31.8798C39.8402 32.0398 40.0002 32.1998 40.1602 32.3598C40.1602 32.3598 40.2402 32.3598 40.2402 32.4398C41.8402 33.8798 42.0802 36.3598 40.8002 38.0398L40.5602 38.3598L34.0802 47.5598L33.2802 48.6798C32.5602 49.7198 31.1202 49.9599 30.0802 49.2398C29.0402 48.5199 28.8002 46.9998 29.5202 45.9598L35.5202 37.5598C35.3602 36.1198 34.8802 35.9598 32.7202 34.9998C30.5602 34.0398 28.3202 32.5198 26.2402 31.3198C23.2802 29.4798 22.8002 25.9598 25.2802 23.3998C28.5602 19.9598 31.9202 16.5998 35.3602 13.3198C36.9602 11.7198 38.9602 11.3198 40.6402 12.0398C41.2002 13.0798 42.1602 13.9598 43.2802 14.3598C44.7202 16.8398 46.2402 19.2398 47.5202 21.7998C48.1602 22.9998 48.8802 23.3998 50.2402 23.3198C51.7602 23.2398 53.2002 23.2398 54.7202 23.2398C56.0802 23.3198 57.2802 24.2798 57.3602 25.6398Z" fill="#50A5EF"/>
<path id="Vector_56" d="M49.9202 23.5599C50.5602 24.7599 51.2802 25.1599 52.6402 25.0799C54.1602 24.9999 55.6002 24.9999 57.1202 24.9999H57.2002C56.8802 23.9599 55.8402 23.3199 54.7202 23.3199C53.2002 23.3199 51.6802 23.3199 50.2402 23.3999C50.0802 23.3999 49.9202 23.3999 49.8402 23.3999C49.9202 23.3999 49.9202 23.4799 49.9202 23.5599ZM27.6802 25.1599C30.9602 21.7199 34.3202 18.3599 37.7602 15.0799C38.9602 13.8799 40.4002 13.3999 41.7602 13.4799C41.2802 13.0799 40.9602 12.5999 40.6402 12.1199C38.9602 11.3999 36.9602 11.7999 35.3602 13.3999C32.0002 16.6799 28.6402 20.0399 25.3602 23.3999C22.8802 25.8799 23.3602 29.4799 26.3202 31.3199C26.7202 31.5599 27.0402 31.7999 27.4402 32.0399C25.6002 30.0399 25.6002 27.2399 27.6802 25.1599ZM44.1602 24.3599C43.9202 23.9599 43.6002 23.5599 43.3602 23.2399C43.1202 23.4799 42.8802 23.7199 42.6402 23.9599C43.5202 25.5599 44.4002 27.2399 45.7602 27.9599C46.0002 28.1199 46.3202 28.1999 46.6402 28.2799C45.7602 27.0799 45.0402 25.5599 44.1602 24.3599ZM31.9202 47.7199L37.9202 39.3199C37.7602 37.9599 37.2802 37.7199 35.4402 36.8399C35.5202 37.0799 35.6002 37.3199 35.6002 37.5599L29.6002 45.9599C28.8002 46.9999 29.0402 48.4399 30.1602 49.2399C30.6402 49.5599 31.1202 49.6399 31.6002 49.6399C31.3602 48.9999 31.5202 48.2799 31.9202 47.7199Z" fill="#69B2F1"/>
<path id="Vector_57" d="M40.16 32.4413C40 32.2013 39.84 32.0413 39.68 31.8813C38 30.5213 36.24 29.1613 34.56 27.8813C36.08 26.2813 37.68 24.7613 39.2 23.2413C39.04 23.0013 38.96 22.7613 38.8 22.6013C38.56 22.2013 38.24 21.8013 38 21.4813C35.84 23.6413 33.76 25.7213 31.6 27.8813C33.2 29.1613 34.96 30.4413 36.72 31.8813C36.88 32.0413 37.04 32.2013 37.2 32.3613C37.2 32.3613 37.28 32.3613 37.28 32.4413C38.88 33.8813 39.12 36.3613 37.84 38.0413L37.6 38.3613L31.12 47.5613L30.32 48.6813C30.24 48.8413 30.08 48.9213 30 49.0813C30.08 49.1613 30.08 49.1613 30.16 49.2413C31.2 49.9613 32.64 49.7213 33.36 48.6813L34.16 47.5613L40.64 38.3613L40.88 38.0413C42.08 36.3613 41.92 33.8813 40.16 32.4413C40.24 32.4413 40.24 32.4413 40.16 32.4413ZM37.68 12.0413C38.24 13.0813 39.2 13.9613 40.32 14.3613C41.76 16.8413 43.28 19.2413 44.56 21.8013C45.2 23.0013 45.92 23.4013 47.28 23.3213C48 23.3213 48.64 23.2413 49.36 23.2413C48.56 23.0813 48.08 22.6813 47.6 21.8013C46.32 19.2413 44.8 16.8413 43.36 14.3613C42.24 13.9613 41.28 13.0813 40.72 12.0413C39.68 11.6413 38.64 11.6413 37.52 11.9613C37.6 12.0413 37.68 12.0413 37.68 12.0413ZM54.8 23.3213C53.84 23.3213 52.88 23.3213 51.84 23.3213C53.12 23.4013 54.24 24.3613 54.32 25.6413C54.4 27.0813 53.28 28.2813 51.84 28.2813H49.28C48.56 28.2813 47.76 28.3613 47.04 28.3613C48.64 28.6013 50.56 28.2013 52.32 28.2813H54.88C56.32 28.2813 57.44 27.0813 57.36 25.6413C57.28 24.2813 56.08 23.3213 54.8 23.3213Z" fill="#418ED0"/>
<path id="Vector_58" d="M74.2397 41.8808C74.3997 41.8808 74.4797 41.8808 74.6397 41.8008C74.7997 41.8008 74.8797 41.6408 74.9596 41.4808V41.4008C75.0396 41.2408 74.9597 41.0008 74.7997 40.9208C74.6397 40.8408 74.4797 40.6808 74.3197 40.6008C73.9997 40.3608 73.7597 40.2008 73.4397 40.0408C71.5197 39.0008 69.2797 38.3608 66.6397 38.0408C66.4797 38.0408 66.3196 38.0408 66.1597 38.0408C65.8397 38.0408 65.5997 38.0408 65.3597 37.9608C64.5597 37.8008 63.9997 38.0408 63.5997 38.3608C63.5197 38.1208 63.4397 37.9608 63.2797 37.7208C64.6397 36.7608 65.9997 35.8808 67.4397 35.1608C67.8397 34.9208 68.2397 34.9208 68.6397 35.0008C69.5997 35.2408 70.5597 35.1608 71.5997 34.6808C71.8397 34.6008 72.0797 34.2808 72.0797 34.0408C72.3197 32.6808 71.9197 31.4808 71.5197 30.4408C70.6397 28.2008 69.2797 26.2808 67.9997 24.6808C66.3997 22.6008 64.5597 20.6008 61.9997 18.1208C61.3597 17.4808 60.9597 17.4808 60.2397 17.9608C59.8397 18.2808 59.3597 18.5208 59.1197 18.8408C58.6397 19.2408 58.4797 19.7208 58.4797 20.2008C58.4797 20.6808 58.7997 21.0808 59.2797 21.4808C60.3997 22.3608 61.6797 23.4008 62.6397 24.6808L60.9597 26.5208C60.6397 26.9208 60.5597 27.3208 60.7997 27.8008H60.4797C60.1597 27.2408 59.1197 25.0808 58.8797 24.4408C59.1997 23.0808 58.2397 22.1208 56.9597 22.2808C56.4797 22.3608 55.9997 22.3608 55.5197 22.5208C55.4397 22.5208 55.3597 22.6008 55.2797 22.6008C55.1197 22.6008 54.9597 22.5208 54.7197 22.5208C53.2797 22.5208 51.6797 22.5208 50.1597 22.6008C49.1197 22.6808 48.6397 22.4408 48.2397 21.4808C47.1997 19.4808 46.0797 17.4808 44.8797 15.5608C44.9597 15.5608 44.9597 15.5608 45.1197 15.5608C48.2397 15.5608 50.9597 12.9208 50.9597 9.64078C50.8797 6.44078 48.2397 3.80078 45.1197 3.80078H45.0397C43.5197 3.80078 42.0797 4.44078 40.9597 5.56078C39.8397 6.68078 39.2797 8.12078 39.2797 9.72078C39.2797 10.1208 39.3597 10.5208 39.4397 10.9208C37.8397 10.7608 36.1597 11.4008 34.7997 12.7608C31.3597 16.1208 27.9997 19.5608 24.7997 22.8408C23.4397 24.2008 22.7997 25.9608 23.0397 27.7208C23.1997 28.6808 23.5197 29.5608 24.1597 30.3608C23.7597 30.2008 23.3597 30.1208 22.9597 29.9608C22.8797 29.9608 22.7197 29.8808 22.6397 29.8008C22.4797 29.5608 22.2397 29.2408 22.0797 28.9208C22.0797 28.9208 22.0797 28.9208 22.0797 28.8408C21.9197 28.6008 21.6797 28.3608 21.4397 28.2008C20.1597 27.3208 18.7197 26.8408 17.2797 26.4408C14.6397 25.6408 11.9197 25.2408 9.59966 24.9208C9.51966 24.9208 9.35966 24.9208 9.27966 24.8408C9.11966 24.8408 9.03966 24.7608 8.87966 24.7608C8.79966 24.7608 8.71966 24.7608 8.39966 24.7608C8.15966 24.7608 7.91966 24.7608 7.75966 24.9208C7.67966 25.0008 7.67966 25.1608 7.67966 25.2408C7.91966 26.2008 8.31966 27.0008 9.03966 27.5608C6.63966 31.4008 4.47966 35.4808 1.83966 39.1608C1.75966 39.3208 1.75966 39.5608 1.91966 39.6408L1.99966 39.7208C2.07966 39.8008 2.15966 39.8808 2.31966 39.8808C2.39966 39.8808 2.47966 39.8808 2.55966 39.8008C2.63966 39.7208 2.79966 39.5608 2.95966 39.4808C3.19966 39.2408 3.51966 39.0008 3.75966 38.7608L4.15966 38.2808C5.19966 37.0808 6.31966 35.8808 7.43966 34.6808C9.51966 32.2808 11.3597 30.6808 13.5197 29.6408C15.7597 30.4408 17.5197 31.4808 18.8797 32.7608C20.0797 33.8808 20.9597 35.0808 21.3597 36.3608C21.5197 36.9208 21.9197 37.1608 22.4797 37.2408C22.6397 37.2408 24.7997 37.4008 24.6397 37.4008C24.6397 37.4008 24.6397 37.4808 24.7197 37.4808C24.4797 37.6408 24.3197 37.8808 24.0797 38.0408C23.6797 38.4408 23.1997 38.7608 22.7197 39.0808C22.3997 39.3208 21.9197 39.2408 21.4397 39.0808H21.3597C21.1997 39.0808 20.7997 38.9208 20.5597 39.2408C19.2797 38.7608 17.9197 38.4408 16.3997 38.4408C9.99966 38.4408 4.87966 43.6408 4.87966 49.9608C4.87966 56.2808 10.0797 61.4808 16.3997 61.4808C21.9197 61.4808 26.4797 57.5608 27.5997 52.4408C27.6797 52.5208 27.9197 52.7608 28.3197 53.0808L28.0797 53.1608C27.9997 53.2408 27.8397 53.2408 27.7597 53.3208L27.6797 53.4008C27.5197 53.4808 27.4397 53.6408 27.5197 53.8808V53.9608C27.5197 54.1208 27.6797 54.2808 27.9197 54.2808C28.0797 54.2808 28.1597 54.2808 28.3197 54.2808C28.5597 54.2808 28.7997 54.3608 28.9597 54.3608C32.0797 54.5208 35.1197 54.6808 38.2397 54.8408L47.8397 55.4008C50.0797 55.4808 52.3197 55.6408 54.6397 55.8008H54.7997C54.8797 55.8008 54.8797 55.8008 54.9597 55.8008H55.0397C55.3597 55.8008 55.5997 55.7208 55.8397 55.4808C55.9997 55.2408 55.9197 54.9208 55.8397 54.6008C54.7997 52.0408 54.5597 51.2408 53.7597 49.1608C53.5997 48.6808 53.5997 48.3608 53.8397 47.9608C55.5197 44.9208 57.7597 42.1208 60.7997 39.6408C60.8797 39.5608 61.0397 39.4008 61.1197 39.3208L61.7597 40.6008C61.4397 40.8408 61.1197 41.1608 60.7997 41.4808C60.1597 42.1208 59.5197 42.8408 58.5597 43.7208C57.9997 44.2808 57.7597 44.9208 57.5197 45.5608C57.4397 45.7208 57.4397 45.8808 57.3597 45.9608C57.2797 46.2008 57.1997 46.5208 57.1197 46.7608C57.1197 46.8408 57.0397 47.3208 57.3597 47.4808C57.4397 47.5608 57.5997 47.6408 57.7597 47.6408C57.9197 47.6408 58.0797 47.5608 58.2397 47.4808L58.4797 47.3208C58.2397 48.1208 58.1597 48.9208 58.1597 49.8008C58.1597 55.3208 62.7197 59.8808 68.2397 59.8808C73.7597 59.8808 78.3197 55.3208 78.3197 49.8008C78.1597 46.6008 76.6397 43.7208 74.2397 41.8808ZM65.1197 38.6808C65.4397 38.7608 65.7597 38.7608 66.0797 38.7608C66.2397 38.7608 66.3997 38.7608 66.5597 38.7608C69.1197 39.0808 71.2797 39.7208 73.1197 40.6808C73.2797 40.7608 73.5197 40.9208 73.6796 41.0008C73.4397 41.0008 73.2797 41.0008 73.0397 40.9208C72.5597 40.8408 72.0797 40.8408 71.5997 40.7608C71.1197 40.6808 70.6396 40.6808 70.1597 40.6008C69.8397 40.6008 69.5197 40.6008 69.2797 40.8408C69.0396 41.0808 68.9596 41.4808 68.9596 41.8008V48.8408C68.9596 49.0808 68.9597 49.1608 68.8797 49.3208C68.8797 49.3208 68.8797 49.3208 68.8797 49.4008L68.6397 48.9208C68.6397 48.6008 68.5597 48.2808 68.4797 48.1208C67.0396 45.0808 65.5197 42.1208 63.9997 39.0808C64.3197 38.6808 64.7197 38.6008 65.1197 38.6808ZM65.3597 48.7608C65.1997 49.0808 65.1197 49.4808 65.1197 49.8808C65.1197 50.0408 65.1197 50.1208 65.1197 50.2808L62.0797 51.0008C61.9997 50.6008 61.9997 50.2808 61.9997 49.8808C61.9997 48.9208 62.2397 47.9608 62.6397 47.1608L65.3597 48.7608ZM63.1197 46.4408C63.3597 46.1208 63.5997 45.8008 63.9197 45.4808V45.5608C64.2397 46.2008 64.5597 46.9208 64.9597 47.5608L63.1197 46.4408ZM65.4397 51.0008C65.5997 51.4808 65.9197 51.8008 66.3197 52.1208L64.7197 54.7608C63.6797 54.0408 62.8797 52.9208 62.3997 51.7208L65.4397 51.0008ZM66.9596 52.6008C67.2797 52.7608 67.6796 52.8408 68.0797 52.8408C68.1597 52.8408 68.2397 52.8408 68.3197 52.8408L69.0397 55.8808C68.7197 55.9608 68.3997 55.9608 68.0797 55.9608C67.1197 55.9608 66.1597 55.7208 65.3597 55.3208L66.9596 52.6008ZM68.0797 52.0408C66.8797 52.0408 65.9197 51.0808 65.9197 49.8808C65.9197 49.7208 65.9197 49.6408 65.9997 49.4808C66.1597 49.7208 66.3997 49.9608 66.6397 50.1208C66.8797 50.2008 67.0396 50.2808 67.2797 50.2808C67.4397 50.2808 67.6797 50.2008 67.8397 50.1208C67.9997 50.0408 68.0797 49.9608 68.1597 49.8808C68.3196 50.0408 68.5597 50.2808 68.7997 50.2808C69.2797 50.2808 69.5197 49.6408 69.5197 49.6408C69.6797 49.4008 69.6796 49.0808 69.6796 48.8408V48.4408C69.9997 48.8408 70.1597 49.3208 70.1597 49.8008C70.2397 51.0808 69.2797 52.0408 68.0797 52.0408ZM70.3197 51.8008L72.9596 53.4008C72.2397 54.4408 71.1197 55.2408 69.8397 55.6408L69.1197 52.6008C69.5997 52.4408 69.9997 52.1208 70.3197 51.8008ZM70.7197 51.1608C70.8797 50.7608 71.0397 50.3608 71.0397 49.8808C71.0397 49.8008 71.0397 49.8008 71.0397 49.7208L74.0797 49.0008C74.1597 49.3208 74.1597 49.5608 74.1597 49.8808C74.1597 50.9208 73.9197 51.8808 73.4397 52.7608L70.7197 51.1608ZM70.8797 48.9208C70.7197 48.4408 70.3997 47.9608 69.9997 47.6408L71.5997 45.0008C72.6397 45.8008 73.4397 46.9208 73.8397 48.2008L70.8797 48.9208ZM69.6796 46.6008V44.1208C70.0797 44.2808 70.5597 44.4408 70.8797 44.6008L69.6796 46.6008ZM67.5997 48.3608C67.6797 48.5208 67.6796 48.6808 67.6796 48.9208V49.0008C67.6796 49.1608 67.5997 49.3208 67.4397 49.4008C67.2797 49.4808 67.1997 49.4808 67.0397 49.4008C66.7997 49.2408 66.5597 49.0008 66.3997 48.7608C65.8397 47.4008 61.5997 39.0008 61.5997 38.9208C61.9197 38.6808 62.2397 38.4408 62.5597 38.2008C62.6397 38.2008 65.6797 44.3608 67.5997 48.3608ZM59.8397 28.2808C59.9197 28.4408 60.0797 28.5208 60.1597 28.5208H60.8797C61.0397 28.5208 61.4397 28.5208 61.5997 28.2008C61.7597 27.8808 61.5197 27.5608 61.4397 27.4008C61.2797 27.1608 61.3597 27.0808 61.4397 27.0008L63.0397 25.3208C63.3597 25.8008 63.4397 25.9608 63.5197 26.2808C63.6797 26.6008 63.7597 26.9208 63.7597 27.2408C63.9197 28.4408 63.1997 29.4008 61.9997 29.4008C61.9197 29.4008 60.3997 29.4008 58.7997 29.0808C58.5597 28.5208 58.1597 27.8008 57.8397 27.0808C57.9997 26.6008 58.0797 26.1208 58.0797 25.6408C58.0797 25.4808 57.9997 25.2408 57.9997 25.0808L58.1597 25.0008C58.4797 25.4008 59.7597 28.1208 59.8397 28.2808ZM57.9197 28.8408C57.6797 28.8408 57.1997 28.6808 56.6397 28.6008C56.8797 28.4408 57.0397 28.2808 57.1997 28.1208C57.2797 28.0408 57.3597 27.9608 57.4397 27.8808C57.6797 28.2808 57.8397 28.6808 57.9197 28.8408ZM42.3997 35.7208C42.3997 34.2808 41.9197 32.8408 40.7997 31.8808C40.7997 31.8008 40.7197 31.8008 40.6397 31.7208C42.9597 32.2808 43.8397 32.5208 46.3197 33.0808C46.5597 33.1608 46.8797 33.2408 47.1197 33.2408C45.3597 33.8008 43.8397 34.6808 42.3997 35.7208ZM42.9597 30.8408C42.8797 31.0008 42.8797 31.1608 42.7997 31.4008C41.8397 31.1608 40.8797 30.9208 39.9997 30.6808C39.8397 30.6008 39.5997 30.6008 39.4397 30.6008C38.0797 29.4808 36.8797 28.6008 35.9197 27.8008C36.0797 27.6408 36.2397 27.4808 36.3197 27.3208C36.7997 26.8408 37.4397 26.4408 38.0797 26.0408C39.3597 25.2408 40.6397 25.0008 42.1597 25.4008C42.3197 25.4008 42.4797 25.4808 42.6397 25.4808C43.3597 26.7608 44.1597 27.9608 45.4397 28.6008C45.8397 28.8408 46.2397 28.9208 46.6397 29.0008L44.0797 29.8008C43.5197 29.9608 43.1197 30.2808 42.9597 30.8408ZM38.7997 24.8408C39.5197 24.1208 40.1597 23.4808 40.8797 22.7608L41.1197 23.0808C41.4397 23.5608 41.7597 24.0408 42.0797 24.6008C40.9597 24.3608 39.8397 24.4408 38.7997 24.8408ZM56.7197 23.0008H57.0397C57.4397 22.9208 57.6797 23.0008 57.9197 23.2408C58.0797 23.4808 58.1597 23.8008 58.0797 24.1208V24.2008L57.7597 24.2808C57.5197 23.8008 57.1197 23.3208 56.5597 23.0008C56.6397 23.0008 56.7197 23.0008 56.7197 23.0008ZM42.1597 6.76078C42.9597 5.96078 43.9997 5.48078 45.1197 5.48078C45.1197 5.48078 45.1197 5.48078 45.1997 5.48078C47.4397 5.48078 49.4397 7.48078 49.4397 9.72078C49.4397 12.0408 47.4397 13.9608 45.1997 13.9608C44.6397 13.9608 44.1597 13.8808 43.6797 13.6408C42.6397 13.2408 41.9197 12.5208 41.4397 11.6408C40.5597 10.0408 40.7997 8.12078 42.1597 6.76078ZM24.5597 27.5608C24.3997 26.2808 24.8797 25.0808 25.9197 24.0408C29.1197 20.7608 32.5597 17.3208 35.9997 13.9608C36.9597 13.0808 37.9997 12.6008 39.1197 12.6008C39.5197 12.6008 39.8397 12.6808 40.2397 12.7608C40.8797 13.8808 41.9197 14.6808 42.8797 15.0808C44.2397 17.4008 45.6797 19.8008 46.9597 22.2808C47.6797 23.7208 48.7197 24.2808 50.3997 24.2008C51.9197 24.1208 53.4397 24.1208 54.8797 24.1208C55.8397 24.1208 56.6397 24.8408 56.7197 25.7208C56.7997 26.6808 55.9997 27.4808 55.0397 27.4808H52.5597C51.8397 27.4808 51.1197 27.5608 50.3997 27.5608C48.7997 27.6408 47.3597 27.8008 46.3197 27.2408C45.2797 26.6808 44.5597 25.4008 43.8397 24.0408C43.5197 23.4008 43.1197 22.7608 42.7197 22.1208C42.6397 22.0408 41.9997 21.1608 41.9197 21.0008C41.7597 20.8408 41.5997 20.6808 41.3597 20.6808C41.1197 20.6808 40.8797 20.7608 40.7197 20.9208C38.5597 23.0808 36.4797 25.1608 34.3197 27.3208C33.9997 27.6408 33.9997 28.2008 34.3997 28.5208C36.0797 29.8008 37.7597 31.0808 39.4397 32.4408C39.5197 32.5208 39.6797 32.6808 39.8397 32.8408L39.9197 32.9208L39.9997 33.0008C41.2797 34.1208 41.4397 36.1208 40.3997 37.5608L33.6797 47.0808L32.8797 48.2008C32.3997 48.8408 31.4397 49.0008 30.7997 48.5208C30.4797 48.2808 30.2397 47.9608 30.1597 47.5608C30.0797 47.1608 30.1597 46.7608 30.4797 46.4408L36.4797 38.0408C36.5597 37.8808 36.6397 37.7208 36.6397 37.4808C36.4797 35.6408 35.5997 35.2408 33.3597 34.2808C31.5197 33.4808 29.5997 32.2008 27.7597 31.0808C27.0397 30.6808 24.8797 29.8808 24.5597 27.5608ZM31.2797 36.9208L31.1997 36.8408C31.1197 36.7608 30.9597 36.6808 30.8797 36.6008C29.4397 35.8008 28.2397 35.0008 27.1197 34.1208C26.9597 34.0408 26.7997 33.8808 26.6397 33.8008C27.1197 33.9608 29.6797 34.6808 30.7997 35.0008C30.8797 35.0008 30.8797 35.0008 30.9597 35.0008C31.4397 35.2408 31.9197 35.4808 32.3997 35.7208C34.3197 36.5208 34.5597 36.6808 34.6397 37.3208L31.1997 42.2808C31.0397 42.0408 30.7997 41.8808 30.6397 41.7208C29.1197 40.3608 27.3597 38.8408 25.8397 37.4808C25.9197 37.4808 29.8397 37.7208 30.6397 37.7208C30.8797 37.7208 31.0397 37.6408 31.1997 37.5608C31.2797 37.4808 31.3597 37.4008 31.3597 37.2408C31.4397 37.0808 31.3597 37.0008 31.2797 36.9208ZM30.0797 42.3608C30.3197 42.6008 30.5597 42.7608 30.7197 43.0008L29.8397 44.2808C29.0397 44.2808 27.8397 44.2008 26.3997 44.2008C25.9197 43.3208 25.2797 42.5208 24.5597 41.8008C24.6397 41.8008 24.7997 41.7208 25.1197 41.6408C26.2397 41.4008 27.3597 41.1608 28.4797 40.8408C29.0397 41.4008 29.5997 41.8808 30.0797 42.3608ZM25.1997 31.4808C25.4397 31.6408 25.6797 31.8008 25.9197 31.9608C26.4797 32.2808 27.0397 32.6808 28.0797 33.3208C27.1197 33.0808 26.1597 32.7608 25.2797 32.5208C25.1997 32.5208 25.1997 32.5208 25.1197 32.4408C25.1197 32.4408 25.1197 32.3608 25.0397 32.3608C24.9597 32.2808 24.9597 32.2808 24.8797 32.2008C24.4797 31.8008 24.0797 31.4808 23.6797 31.0008L23.5997 30.9208C24.0797 31.2408 24.6397 31.3208 25.1997 31.4808ZM6.79966 34.2008C6.07966 35.0808 5.27966 35.8808 4.55966 36.7608C5.51966 35.1608 6.47966 33.5608 7.43966 32.0408C8.15966 30.7608 8.95966 29.4808 9.75966 28.2008C9.83966 28.2808 9.91966 28.2808 9.99966 28.3608C10.4797 28.6808 11.1197 28.9208 11.6797 29.0808C11.9197 29.1608 12.2397 29.2408 12.4797 29.3208C10.4797 30.4408 8.71966 31.9608 6.79966 34.2008ZM22.4797 36.4408C22.2397 36.4408 22.1597 36.3608 22.0797 36.1208C21.5997 34.6808 20.7197 33.3208 19.3597 32.1208C17.8397 30.6808 15.9197 29.6408 13.5197 28.7608C12.9597 28.5208 12.3997 28.3608 11.8397 28.2008C11.2797 28.0408 10.7197 27.8008 10.3197 27.5608C10.1597 27.4808 9.99966 27.3208 9.83966 27.2408C9.27966 26.8408 8.87966 26.2808 8.63966 25.6408H8.79966C9.03966 25.6408 9.19966 25.7208 9.51966 25.8008C11.7597 26.1208 14.4797 26.5208 17.0397 27.2408C18.4797 27.6408 19.8397 28.1208 20.9597 28.9208C21.1197 29.0008 21.2797 29.1608 21.2797 29.2408V29.3208C21.4397 29.7208 21.6797 30.1208 21.9197 30.4408C22.9597 31.9608 25.1197 33.7208 26.6397 34.8408C27.5997 35.5608 28.6397 36.2808 29.8397 37.0008C28.7997 36.8408 23.1197 36.5208 22.4797 36.4408ZM21.1197 39.8008H21.2797C21.8397 39.9608 22.5597 40.1208 23.1997 39.6408C23.6797 39.3208 24.1597 39.0008 24.6397 38.6008C24.8797 38.3608 25.1197 38.2008 25.3597 37.9608C26.1597 38.6808 27.0397 39.4808 27.8397 40.2008C26.3197 40.6008 25.1997 40.8408 24.6397 40.9208C23.5997 41.1608 22.6397 41.4008 21.5997 41.3208C21.3597 41.3208 21.3597 41.3208 21.3597 41.3208C21.3597 41.3208 21.3597 41.2408 21.2797 41.0808C21.1997 40.6808 21.1997 40.2008 21.1197 39.8008C21.1197 39.8808 21.1197 39.8808 21.1197 39.8008ZM16.3997 60.7608C10.4797 60.7608 5.67966 55.9608 5.67966 50.0408C5.67966 44.1208 10.4797 39.3208 16.3997 39.3208C17.7597 39.3208 19.1197 39.6408 20.3197 40.1208C20.3197 40.5208 20.3997 41.0008 20.4797 41.4008C20.5597 42.0408 20.8797 42.3608 21.5197 42.3608C21.5997 42.3608 21.6797 42.3608 21.7597 42.3608C22.3997 42.3608 22.9597 42.2808 23.5997 42.1208C24.3197 42.7608 24.8797 43.4808 25.4397 44.2808C24.8797 44.2808 23.7597 44.2808 21.5997 44.2808C20.2397 43.0808 18.3997 42.2808 16.3997 42.2808C12.1597 42.2808 8.63966 45.8008 8.63966 50.0408C8.63966 54.3608 12.1597 57.8008 16.3997 57.8008C20.3197 57.8008 23.5997 54.8408 24.0797 51.0008C24.7197 50.9208 26.5597 50.7608 26.4797 50.7608C26.4797 50.8408 26.4797 50.8408 26.4797 50.9208C26.3997 51.2408 26.5597 51.5608 26.7997 51.7208C26.8797 51.8008 26.8797 51.8008 26.9597 51.8808C26.0797 56.9208 21.6797 60.7608 16.3997 60.7608ZM20.3197 44.2008C20.2397 44.2008 15.9197 44.2008 12.3997 44.2808C13.5197 43.4808 14.9597 43.0008 16.3997 43.0008C17.8397 43.0008 19.1997 43.4808 20.3197 44.2008ZM26.7997 48.3608C26.7197 48.8408 26.6397 49.3208 26.6397 49.8008C26.6397 49.8808 26.6397 49.9608 26.6397 50.0408L15.4397 51.0008C15.3597 51.0008 15.2797 51.0008 15.2797 51.0008C15.2797 51.0008 15.2797 51.0008 15.2797 50.8408C15.1997 50.4408 15.1997 49.9608 15.1997 49.5608C15.1997 49.4808 15.1997 49.4008 15.1997 49.4008C15.1997 49.4008 15.2797 49.4008 15.3597 49.4008L15.9197 49.3208C17.4397 49.1608 18.7997 49.0008 26.7997 48.3608ZM19.9197 51.8008C19.9997 51.6408 20.0797 51.5608 20.0797 51.4008C21.1997 51.3208 23.3597 51.0808 23.2797 51.0808C23.1197 51.8808 22.8797 52.6808 22.4797 53.4008L19.9197 51.8008ZM22.0797 54.0408C21.1997 55.3208 19.9197 56.2008 18.3997 56.6808L17.6797 53.7208C18.3997 53.4808 19.0397 53.0008 19.4397 52.4408L22.0797 54.0408ZM15.2797 48.5208C14.6397 48.6008 14.3197 48.9208 14.3997 49.5608C14.3997 50.0408 14.4797 50.4408 14.4797 50.9208C14.5597 51.4808 14.8797 51.8008 15.4397 51.8008H15.5197L19.1997 51.4808C18.6397 52.4408 17.5997 53.1608 16.3997 53.1608C14.6397 53.1608 13.1997 51.7208 13.1997 49.9608C13.1997 49.0808 13.5997 48.2008 14.2397 47.6408C14.6397 47.9608 14.9597 48.2008 15.3597 48.5208H15.2797ZM12.5597 50.6008L9.59966 51.3208C9.27966 49.7208 9.51966 48.1208 10.2397 46.7608L12.7997 48.3608C12.5597 48.8408 12.4797 49.4008 12.4797 49.9608C12.4797 50.2008 12.4797 50.4408 12.5597 50.6008ZM12.7197 51.4008C12.9597 52.1208 13.4397 52.6808 14.0797 53.1608L12.4797 55.8008C11.1997 54.9208 10.2397 53.6408 9.75966 52.1208L12.7197 51.4008ZM14.7997 53.5608C15.2797 53.8008 15.8397 53.9608 16.4797 53.9608C16.6397 53.9608 16.7997 53.9608 16.9597 53.8808L17.6797 56.8408C17.2797 56.9208 16.8797 56.9208 16.4797 56.9208C15.2797 56.9208 14.1597 56.6008 13.1997 56.1208L14.7997 53.5608ZM13.1997 47.6408L10.5597 46.0408C10.7197 45.8008 10.9597 45.5608 11.1197 45.3208C13.1197 46.8408 13.3597 47.0008 13.5997 47.1608C13.5197 47.3208 13.3597 47.4808 13.1997 47.6408ZM27.1197 47.4808C20.6397 48.0408 17.9997 48.2808 17.1197 48.3608C17.1197 48.3608 17.1197 48.3608 17.0397 48.3608C17.0397 48.3608 16.9597 48.3608 16.8797 48.3608H16.9597C16.8797 48.3608 16.7997 48.3608 16.7197 48.3608C16.6397 48.3608 16.6397 48.3608 16.6397 48.3608C15.1197 47.2408 13.5997 46.1208 12.0797 44.9208C15.1997 44.8408 25.2797 44.8408 29.1997 44.9208C29.1197 45.0008 29.0397 45.1608 28.8797 45.2408C28.5597 45.6408 28.2397 46.0408 27.8397 46.4408C27.5997 46.6808 27.3597 47.0008 27.1197 47.2408C27.1197 47.4008 27.1197 47.4808 27.1197 47.4808ZM30.2397 53.1608C29.9997 53.2408 29.8397 53.2408 29.5997 53.0808C29.5997 53.0008 29.5197 53.0008 29.4397 52.9208C29.1197 52.6008 28.3197 52.0408 27.3597 51.1608C27.3597 51.1608 27.2797 51.0808 27.3597 51.0008C27.3597 50.8408 27.3597 50.6008 27.4397 50.4408C27.5197 49.7208 27.5997 49.0008 27.6797 48.2808V48.2008C27.6797 48.1208 27.6797 48.1208 27.7597 48.0408C27.7597 47.9608 27.8397 47.9608 27.8397 47.8808C27.9997 47.6408 28.1597 47.4808 28.3197 47.3208C28.3197 47.4808 28.3197 47.7208 28.3197 47.8808C28.4797 48.6808 28.8797 49.4808 29.5997 49.9608C30.1597 50.3608 30.7997 50.5208 31.3597 50.5208C32.3197 50.5208 33.2797 50.0408 33.9197 49.2408L38.2397 43.0808C38.3197 43.4808 38.3197 43.8808 38.3197 44.2808C38.3197 45.1608 38.3997 46.1208 38.9597 47.0808C38.9597 47.1608 38.8797 47.2408 38.7997 47.3208L38.7197 47.4808C38.2397 48.3608 38.4797 49.1608 38.7197 49.8808C38.8797 50.4408 39.0397 50.9208 38.8797 51.4008C38.8797 51.4808 38.7997 51.5608 38.7997 51.6408C38.7197 51.8008 38.6397 51.8808 38.3997 51.8008L37.2797 51.7208C36.3197 51.6408 35.2797 51.6408 34.2397 51.6408C33.5997 51.6408 33.0397 51.8008 32.6397 51.9608C31.9197 52.2808 31.2797 52.6008 30.5597 52.9208L30.2397 53.1608ZM60.0797 39.0808C57.0397 41.6408 54.7197 44.4408 52.9597 47.6408C52.6397 48.2808 52.5597 48.8408 52.8797 49.5608C53.4397 50.8408 53.9197 52.2008 54.3997 53.4808L54.9597 54.9208C54.9597 54.9208 54.9597 54.9208 54.9597 55.0008H54.8797H54.7197C54.6397 55.0008 54.6397 55.0008 54.5597 55.0008C52.3197 54.8408 50.0797 54.7608 47.8397 54.6008C38.1597 54.0408 40.1597 54.1208 31.1197 53.6408C31.7597 53.3208 32.3997 53.0008 33.1197 52.7608C33.4397 52.6008 33.9197 52.5208 34.3997 52.5208C35.3597 52.5208 36.3997 52.6008 37.3597 52.6008L38.4797 52.6808C38.9597 52.6808 39.3597 52.5208 39.5997 52.0408C39.5997 51.9608 39.6797 51.8808 39.6797 51.8008C39.9997 51.0008 39.7597 50.2808 39.5997 49.6408C39.4397 49.0008 39.1997 48.4408 39.5197 47.8808L39.5997 47.7208C39.7597 47.4808 39.9997 47.0808 39.6797 46.6008C39.1997 45.8808 39.1997 45.0808 39.1197 44.2008C39.1197 43.5608 39.0397 42.8408 38.7997 42.2008L41.1997 38.8408L41.4397 38.5208C41.8397 37.9608 42.0797 37.4008 42.2397 36.7608C43.9197 35.4008 45.9197 34.2808 48.1597 33.6408C48.3197 33.5608 48.4797 33.5608 48.5597 33.4808C48.7197 33.4808 48.8797 33.2408 48.8797 33.0008C48.8797 32.8408 48.7197 32.6808 48.5597 32.6008C47.8397 32.4408 47.1197 32.2808 46.3997 32.1208C45.1997 31.8008 44.5597 31.7208 43.4397 31.4008C43.5197 31.2408 43.5197 31.0808 43.5997 30.9208C43.6797 30.6008 43.8397 30.5208 44.1597 30.4408L48.9597 29.1608C49.3597 29.1608 49.7597 29.0808 50.1597 29.0808C50.8797 29.0008 51.5197 29.0008 52.2397 29.0008H54.7997C54.8797 29.0008 54.8797 29.0008 54.9597 29.0008C55.8397 29.1608 56.7197 29.4008 57.2797 29.4808C59.1197 29.8008 59.9997 30.0408 61.9997 30.0408C63.5997 30.0408 64.7997 28.6808 64.5597 27.0008C64.3997 26.2008 64.1597 25.4808 63.5997 24.7608C63.5197 24.6008 63.4397 24.5208 63.3597 24.3608C62.2397 22.8408 60.8797 21.7208 59.6797 20.7608C59.4397 20.6008 59.1997 20.3608 59.1997 20.0408C59.1997 19.8008 59.3597 19.6408 59.5997 19.3208C59.8397 19.0808 60.1597 18.8408 60.6397 18.5208C61.0397 18.2808 61.0397 18.2808 61.3597 18.6008C63.9197 21.0808 65.7597 23.0808 67.2797 25.0808C68.4797 26.6008 69.8397 28.5208 70.6397 30.6008C71.0397 31.5608 71.3597 32.6008 71.1197 33.7208L71.0397 33.8008C70.1597 34.2008 69.3597 34.2808 68.6397 34.0408C67.9997 33.8808 67.4397 33.9608 66.8797 34.2808C64.3197 35.8008 62.2397 37.3208 60.0797 39.0808ZM57.9997 46.6808L57.8397 46.8408C57.8397 46.6808 57.9197 46.6008 57.9997 46.4408C58.0797 46.2808 58.0797 46.1208 58.1597 45.9608C58.3997 45.4008 58.5597 44.8408 58.9597 44.4408C59.7597 43.6408 60.4797 42.8408 61.1997 42.2008C61.4397 41.9608 61.6797 41.7208 61.9997 41.4808L62.6397 42.6808C62.0797 43.0808 61.5197 43.4808 61.0397 43.9608C60.7197 44.2008 60.4797 44.5208 60.2397 44.8408C59.9997 45.0808 59.8397 45.4008 59.5997 45.5608C59.0397 45.9608 58.4797 46.2808 57.9997 46.6808ZM68.0797 59.1608C62.9597 59.1608 58.7997 55.0008 58.7997 49.8808C58.7997 48.6808 59.0397 47.5608 59.4397 46.6008C59.5997 46.4408 59.8397 46.2808 59.9997 46.1208C60.2397 45.8808 60.4797 45.5608 60.7197 45.3208C60.9597 45.0808 61.1197 44.7608 61.4397 44.5208C61.8397 44.1208 62.3997 43.7208 62.8797 43.3208C63.1197 43.8008 63.3597 44.2808 63.5997 44.6808C62.1597 45.9608 61.2797 47.7208 61.2797 49.8008C61.2797 53.5608 64.3197 56.6008 68.0797 56.6008C68.6397 56.6008 69.1197 56.5208 69.5997 56.4408C72.5597 55.7208 74.7997 53.0008 74.7997 49.8008C74.7997 46.6008 72.5597 43.8808 69.5997 43.1608V41.8008C69.5997 41.5608 69.5997 41.4808 69.5997 41.4808C69.5997 41.4808 69.6797 41.4808 69.9197 41.4808C70.3997 41.5608 70.8797 41.5608 71.2797 41.6408C71.6796 41.7208 72.0797 41.7208 72.4797 41.8008C75.2797 43.4008 77.1997 46.4408 77.1997 49.8808C77.3597 55.0008 73.1997 59.1608 68.0797 59.1608Z" fill="#2B2F64"/>
</g>
</g>
</g>
</svg>
