<svg width="80" height="80" viewBox="0 0 80 80" fill="none" xmlns="http://www.w3.org/2000/svg">
<g id="car" clip-path="url(#clip0_23_4092)">
<path id="Vector" d="M61.3375 47.9004C58.4 47.9004 56.0125 50.2879 56.0125 53.2254C56.0125 56.1629 58.4 58.5504 61.3375 58.5504C64.275 58.5504 66.6625 56.1629 66.6625 53.2254C66.65 50.2879 64.2625 47.9004 61.3375 47.9004ZM61.3375 56.1254C59.7375 56.1254 58.4375 54.8254 58.4375 53.2254C58.4375 51.6254 59.7375 50.3254 61.3375 50.3254C62.9375 50.3254 64.2375 51.6254 64.2375 53.2254C64.225 54.8254 62.9375 56.1254 61.3375 56.1254ZM17.075 47.9004C14.1375 47.9004 11.75 50.2879 11.75 53.2254C11.75 56.1629 14.1375 58.5504 17.075 58.5504C20.0125 58.5504 22.4 56.1629 22.4 53.2254C22.4 50.2879 20.0125 47.9004 17.075 47.9004ZM17.075 56.1254C15.475 56.1254 14.175 54.8254 14.175 53.2254C14.175 51.6254 15.475 50.3254 17.075 50.3254C18.675 50.3254 19.975 51.6254 19.975 53.2254C19.975 54.8254 18.675 56.1254 17.075 56.1254Z" fill="#2B2F64"/>
<path id="Vector_2" d="M79.7756 40.1242C79.5631 37.2117 77.6256 34.7367 74.8506 33.8367L62.7881 29.8242C61.0256 29.2367 59.4631 28.2992 58.1631 27.0117L51.9631 21.0617C49.2256 18.4117 45.6006 16.9492 41.7881 16.9492H19.6131C16.0506 16.9492 12.6256 18.4617 10.2381 21.0867L4.72561 27.1242C2.17561 29.9117 0.66311 33.5117 0.43811 37.3117L0.10061 47.7117C0.10061 47.7117 0.10061 47.7117 0.10061 47.7242C0.10061 47.7242 0.10061 47.7242 0.10061 47.7367L0.000609593 50.5242C-0.0368904 51.5492 0.33811 52.5367 1.06311 53.2867C1.77561 54.0242 2.75061 54.4367 3.78811 54.4367H7.31311C7.91311 59.2867 12.0506 63.0492 17.0756 63.0492C22.0756 63.0492 26.2256 59.2742 26.8256 54.4367H51.5881C52.1881 59.2867 56.3256 63.0492 61.3381 63.0492C66.3506 63.0492 70.4881 59.2742 71.1006 54.4367H76.2131C77.2381 54.4367 78.2006 54.0367 78.9256 53.2992C79.6381 52.5742 80.0256 51.5867 80.0006 50.5742L79.7756 40.1242ZM77.3631 40.2367L77.4506 44.1367H75.7506C74.8381 44.1367 74.0631 43.6367 73.8006 42.8992C73.1881 41.0992 74.8756 39.4492 76.7256 38.2242C77.0756 38.8367 77.3131 39.5117 77.3631 40.2367ZM2.76311 40.5367H4.47561C4.63811 40.5367 4.72561 40.6242 4.77561 40.6617C4.82561 40.7242 4.88811 40.8242 4.87561 40.9617L4.47561 46.1617C4.47561 46.3617 4.28811 46.5117 4.08811 46.5117H2.56311L2.76311 40.5367ZM17.0756 60.6242C12.9881 60.6242 9.66311 57.2992 9.66311 53.2242C9.66311 49.1367 13.0006 45.8117 17.0756 45.8117C21.1631 45.8117 24.4756 49.1492 24.4756 53.2242C24.4881 57.3117 21.1631 60.6242 17.0756 60.6242ZM68.7506 53.2492C68.7256 57.3242 65.4131 60.6367 61.3381 60.6367C57.2506 60.6367 53.9381 57.3117 53.9381 53.2367C53.9381 49.1492 57.2631 45.8242 61.3381 45.8242C65.4256 45.8242 68.7381 49.1492 68.7506 53.2117C68.7506 53.2242 68.7381 53.2242 68.7381 53.2367C68.7381 53.2367 68.7506 53.2367 68.7506 53.2492ZM77.1881 51.5992C76.9256 51.8617 76.5881 52.0117 76.2006 52.0117H71.0881C70.4881 47.1617 66.3506 43.3867 61.3256 43.3867C56.3256 43.3867 52.1756 47.1742 51.5631 52.0117H26.8131C26.2131 47.1617 22.0756 43.3867 17.0631 43.3867C12.0506 43.3867 7.90061 47.1742 7.30061 52.0117H3.80061C3.42561 52.0117 3.07561 51.8617 2.81311 51.5992C2.55061 51.3367 2.41311 50.9742 2.42561 50.5992L2.47561 48.9242H4.08811C5.57561 48.9242 6.81311 47.7742 6.90061 46.3242L7.28811 41.1492C7.35061 40.3617 7.08811 39.5867 6.56311 39.0117C6.02561 38.4242 5.26311 38.0992 4.47561 38.0992H2.83811L2.86311 37.4117C3.06311 34.1992 4.35061 31.1367 6.52561 28.7617L12.0381 22.7117C13.9756 20.5867 16.7256 19.3617 19.6131 19.3617H41.8006C44.9756 19.3617 47.9881 20.5742 50.2881 22.7867L56.4881 28.7492C58.0631 30.2742 59.9256 31.4117 62.0381 32.1242L74.1006 36.1242C74.4006 36.2367 74.6881 36.3617 74.9506 36.5117C71.0756 39.2492 70.8881 41.8992 71.5131 43.7117C72.1131 45.4242 73.8256 46.5742 75.7506 46.5742H77.5006L77.5881 50.6242C77.5756 50.9867 77.4381 51.3367 77.1881 51.5992Z" fill="#2B2F64"/>
<path id="Vector_3" d="M4.875 40.9621L4.475 46.1621C4.475 46.3621 4.2875 46.5121 4.0875 46.5121H2.5625L2.7625 40.5371H4.475C4.6375 40.5371 4.725 40.6246 4.775 40.6621C4.825 40.7121 4.8875 40.8121 4.875 40.9621Z" fill="#EBF4FF"/>
<path id="Vector_4" d="M17.0756 45.8008C12.9881 45.8008 9.66309 49.1383 9.66309 53.2133C9.66309 57.3008 13.0006 60.6133 17.0756 60.6133C21.1631 60.6133 24.4756 57.2883 24.4756 53.2133C24.4881 49.1383 21.1631 45.8008 17.0756 45.8008ZM17.0756 58.5508C14.1381 58.5508 11.7506 56.1633 11.7506 53.2258C11.7506 50.2883 14.1381 47.9008 17.0756 47.9008C20.0131 47.9008 22.4006 50.2883 22.4006 53.2258C22.4006 56.1633 20.0131 58.5508 17.0756 58.5508Z" fill="#2B2F64"/>
<path id="Vector_5" d="M19.9758 53.2242C19.9758 54.8242 18.6758 56.1242 17.0758 56.1242C15.4758 56.1242 14.1758 54.8242 14.1758 53.2242C14.1758 51.6242 15.4758 50.3242 17.0758 50.3242C18.6758 50.3242 19.9758 51.6242 19.9758 53.2242Z" fill="#EDEDEE"/>
<path id="Vector_6" d="M68.75 53.2C68.7375 49.125 65.4125 45.8125 61.3375 45.8125C57.25 45.8125 53.9375 49.15 53.9375 53.225C53.9375 57.3125 57.2625 60.625 61.3375 60.625C65.425 60.625 68.725 57.3125 68.75 53.2375C68.75 53.225 68.7375 53.225 68.7375 53.2125C68.7375 53.2125 68.75 53.2125 68.75 53.2ZM61.3375 58.55C58.4 58.55 56.0125 56.1625 56.0125 53.225C56.0125 50.2875 58.4 47.9 61.3375 47.9C64.275 47.9 66.6625 50.2875 66.6625 53.225C66.65 56.1625 64.2625 58.55 61.3375 58.55Z" fill="#2B2F64"/>
<path id="Vector_7" d="M64.2248 53.2242C64.2248 54.8242 62.9248 56.1242 61.3248 56.1242C59.7248 56.1242 58.4248 54.8242 58.4248 53.2242C58.4248 51.6242 59.7248 50.3242 61.3248 50.3242C62.9373 50.3242 64.2248 51.6242 64.2248 53.2242Z" fill="#EDEDEE"/>
<path id="Vector_8" d="M77.4373 44.1508H75.7498C74.8373 44.1508 74.0623 43.6508 73.7998 42.9133C73.1873 41.1133 74.8748 39.4633 76.7248 38.2383C77.0873 38.8383 77.3248 39.5258 77.3623 40.2508L77.4373 44.1508Z" fill="#EBF4FF"/>
<path id="Vector_9" d="M77.4881 46.575H75.7381C73.8131 46.575 72.1006 45.425 71.5006 43.7125C70.8881 41.9 71.0631 39.25 74.9381 36.5125C74.6756 36.3625 74.3881 36.2375 74.0881 36.125L62.0256 32.125C59.9131 31.425 58.0506 30.2875 56.4756 28.75L50.2881 22.8C48.0006 20.5875 44.9756 19.375 41.8006 19.375H19.6131C16.7256 19.375 13.9756 20.6 12.0381 22.725L6.52559 28.775C4.35059 31.15 3.06309 34.2125 2.86309 37.425L2.83809 38.1125H4.47559C5.26309 38.1125 6.02559 38.4375 6.56309 39.025C7.08809 39.6 7.35059 40.375 7.28809 41.1625L6.90059 46.3375C6.81309 47.7875 5.57559 48.9375 4.08809 48.9375H2.47559L2.42559 50.6125C2.41309 50.975 2.55059 51.3375 2.81309 51.6125C3.06309 51.875 3.41309 52.025 3.80059 52.025H7.32559C7.92559 47.175 12.0631 43.4 17.0881 43.4C22.0881 43.4 26.2381 47.1875 26.8381 52.025H51.5881C52.1881 47.175 56.3381 43.4 61.3506 43.4C66.3631 43.4 70.5131 47.1875 71.1131 52.025H76.2256C76.6006 52.025 76.9381 51.875 77.2131 51.6125C77.4631 51.35 77.6006 51.0125 77.6006 50.625L77.4881 46.575ZM12.1756 37.75H9.75059C9.07559 37.75 8.53809 37.2 8.53809 36.5375C8.53809 35.875 9.07559 35.325 9.75059 35.325H12.1756C12.8381 35.325 13.3881 35.875 13.3881 36.5375C13.3881 37.2 12.8381 37.75 12.1756 37.75ZM33.5631 37.75H31.1381C30.4756 37.75 29.9256 37.2 29.9256 36.5375C29.9256 35.875 30.4756 35.325 31.1381 35.325H33.5631C34.2381 35.325 34.7756 35.875 34.7756 36.5375C34.7756 37.2 34.2381 37.75 33.5631 37.75ZM57.4131 33.4C57.2506 33.9 56.7881 34.25 56.2506 34.25H8.45059C8.02559 34.25 7.62559 34.025 7.41309 33.65C7.20059 33.2875 7.20059 32.825 7.40059 32.45C7.60059 32.0875 12.3381 23.5375 18.1756 21.725C18.3006 21.6875 18.4131 21.6625 18.5381 21.6625H42.6631C45.1631 21.6625 47.4881 22.7875 49.0631 24.7625C50.6506 26.75 53.5631 29.7125 56.9506 32.025C57.3881 32.325 57.5756 32.8875 57.4131 33.4Z" fill="#3894FF"/>
<path id="Vector_10" d="M51.9381 50.325C51.7631 50.8625 51.6506 51.425 51.5756 52.0125H26.8256C26.7506 51.425 26.6256 50.8625 26.4756 50.325H51.9381ZM7.68809 50.325C7.51309 50.8625 7.40059 51.425 7.32559 52.0125H3.80059C3.42559 52.0125 3.07559 51.8625 2.81309 51.6C2.55059 51.3375 2.41309 50.975 2.42559 50.6L2.47559 48.925H4.15059V49.075C4.13809 49.4 4.27559 49.7125 4.52559 49.9625C4.76309 50.1875 5.11309 50.325 5.46309 50.325H7.68809ZM74.9506 36.5125C74.4756 36.85 74.0506 37.175 73.6881 37.5125C73.3756 37.25 72.6131 37 72.3756 36.925L60.9131 33.4625C58.9006 32.85 57.1256 31.375 55.6131 30.0375L49.7131 24.7625C47.5131 22.8 44.7506 21.4125 41.7256 21.4125H20.5506C17.8006 21.4125 15.1756 22.5 13.3256 24.3875L8.06309 29.7375C5.98809 31.85 4.75059 34.5625 4.57559 37.4125L4.53809 38.1125H2.83809L2.86309 37.425C3.06309 34.2125 4.35059 31.15 6.52559 28.775L12.0381 22.725C13.9756 20.6 16.7256 19.375 19.6131 19.375H41.8006C44.9756 19.375 47.9881 20.5875 50.2881 22.8L56.4881 28.75C58.0631 30.275 59.9256 31.4125 62.0381 32.125L74.1006 36.125C74.4006 36.225 74.6756 36.3625 74.9506 36.5125ZM77.5756 50.6125C77.5756 50.9875 77.4381 51.325 77.1881 51.6C76.9256 51.8625 76.5881 52.0125 76.2006 52.0125H71.0881C71.0131 51.425 70.8881 50.8625 70.7381 50.325H74.5381C74.8881 50.325 75.2131 50.1875 75.4756 49.9625C75.7131 49.725 75.8506 49.425 75.8506 49.0875L75.7881 46.5625H77.4881L77.5756 50.6125Z" fill="#1F87FF"/>
<path id="Vector_11" d="M56.9504 32.0246C53.5504 29.7121 50.6504 26.7496 49.0629 24.7621C47.4879 22.7871 45.1629 21.6621 42.6629 21.6621H18.5379C18.4129 21.6621 18.3004 21.6871 18.1754 21.7246C12.3379 23.5371 7.58793 32.0871 7.40043 32.4496C7.20043 32.8246 7.20043 33.2871 7.41293 33.6496C7.62543 34.0121 8.02543 34.2496 8.45043 34.2496H56.2504C56.7879 34.2496 57.2504 33.8996 57.4129 33.3996C57.5754 32.8871 57.3879 32.3246 56.9504 32.0246ZM28.1754 31.8121H10.6254C12.2254 29.3871 15.3504 25.2246 18.7379 24.0746H29.3879C28.4879 25.8871 27.5004 28.7496 28.1754 31.8121ZM30.6629 31.8121C29.6754 28.5496 31.4004 25.2746 32.1504 24.0746H42.6504C44.4129 24.0746 46.0504 24.8746 47.1629 26.2621C48.3754 27.7871 50.3254 29.8496 52.6629 31.7996H30.6629V31.8121Z" fill="#2B2F64"/>
<path id="Vector_12" d="M28.175 31.8117H10.625C12.225 29.3867 15.35 25.2242 18.7375 24.0742H29.3875C28.4875 25.8867 27.5 28.7492 28.175 31.8117ZM52.6625 31.8117H30.6625C29.675 28.5492 31.4 25.2742 32.15 24.0742H42.65C44.4125 24.0742 46.05 24.8742 47.1625 26.2617C48.375 27.8117 50.325 29.8617 52.6625 31.8117Z" fill="#EDEDEE"/>
<path id="Vector_13" d="M29.3875 24.0879C29.1875 24.4754 29 24.9129 28.825 25.3879H20.2125C17.2125 26.3504 14.425 29.8129 13.0125 31.8254H10.625C12.225 29.4004 15.35 25.2379 18.7375 24.0879H29.3875Z" fill="#D7D6D6"/>
<path id="Vector_14" d="M28.1752 31.8125H13.0127C14.4252 29.8 17.2002 26.3375 20.2127 25.375H28.8252C28.1502 27.125 27.6502 29.4125 28.1752 31.8125Z" fill="#EDEDEE"/>
<path id="Vector_15" d="M52.6627 31.8129H50.3377C48.2627 30.1879 46.5377 28.4754 45.4502 27.2129C44.4502 26.0504 43.0002 25.3879 41.4502 25.3879H31.4502C31.7002 24.8379 31.9627 24.3879 32.1502 24.0879H42.6502C44.4127 24.0879 46.0502 24.8879 47.1627 26.2754C48.3752 27.8129 50.3252 29.8629 52.6627 31.8129Z" fill="#D7D6D6"/>
<path id="Vector_16" d="M13.3871 36.5367C13.3871 37.1992 12.8371 37.7492 12.1746 37.7492H9.74961C9.07461 37.7492 8.53711 37.1992 8.53711 36.5367C8.53711 35.8742 9.07461 35.3242 9.74961 35.3242H12.1746C12.8371 35.3242 13.3871 35.8617 13.3871 36.5367ZM34.7746 36.5367C34.7746 37.1992 34.2371 37.7492 33.5621 37.7492H31.1371C30.4746 37.7492 29.9246 37.1992 29.9246 36.5367C29.9246 35.8742 30.4746 35.3242 31.1371 35.3242H33.5621C34.2371 35.3242 34.7746 35.8617 34.7746 36.5367Z" fill="#2B2F64"/>
</g>
<defs>
<clipPath id="clip0_23_4092">
<rect width="80" height="80" fill="white"/>
</clipPath>
</defs>
</svg>
