<svg width="80" height="80" viewBox="0 0 80 80" fill="none" xmlns="http://www.w3.org/2000/svg">
<g id="health-care">
<path id="Vector" d="M63.3414 47.7063L56.8885 60.871C49.2085 62.1498 43.7508 61.8804 38.6708 64.118C37.0544 64.831 35.2214 64.871 33.5238 64.3874L6.13085 56.5051C5.38336 56.2924 4.74278 55.8072 4.33555 55.1453C3.92832 54.4833 3.78404 53.6928 3.93119 52.9297C4.07835 52.1666 4.50624 51.4864 5.1304 51.0233C5.75456 50.5603 6.52964 50.3481 7.30262 50.4286L20.4003 51.7757C20.4003 51.2368 20.5614 50.6839 20.9391 50.1851C20.9391 50.1851 24.3744 46.4674 34.4803 47.571C34.8074 47.6092 35.1388 47.5798 35.4541 47.4847C35.7694 47.3896 36.0618 47.2307 36.3132 47.018C42.9838 41.6015 52.9803 41.6157 63.3414 47.7063Z" fill="#F8DACA"/>
<path id="Vector_2" opacity="0.1" d="M63.3455 47.7088L56.8867 60.8735C49.2067 62.1452 43.7455 61.8852 38.6749 64.117C37.0538 64.8299 35.2244 64.8699 33.5255 64.3888L6.13025 56.5029C5.53367 56.3321 5.00212 55.9861 4.60442 55.5097C4.20673 55.0334 3.96121 54.4486 3.89966 53.8311C3.82201 53.0782 4.0173 52.3782 4.3926 51.8076C4.78083 52.4311 5.39142 52.897 6.13025 53.104L33.5255 60.9782C35.2244 61.4711 37.0538 61.4323 38.6749 60.7052C43.7455 58.4746 49.2067 58.7464 56.8867 57.4629L62.0349 46.9688C62.4761 47.2029 62.9055 47.4488 63.3455 47.7088Z" fill="black"/>
<path id="Vector_3" opacity="0.3" d="M36.3135 47.012C35.7818 47.4414 35.1465 47.6485 34.4853 47.5708C24.3794 46.4685 20.9441 50.1779 20.9441 50.1779C20.5943 50.6338 20.403 51.1915 20.3994 51.7661C20.6971 52.2743 20.9747 52.7955 21.2347 53.3296C22.2312 52.5108 26.0041 50.0437 34.4853 50.9696C35.1465 51.0602 35.7818 50.852 36.3135 50.4237C42.6959 45.2355 52.1382 45.0285 62.0347 50.372L63.3453 47.7014C52.9806 41.6167 42.9806 41.6026 36.3135 47.012Z" fill="white"/>
<path id="Vector_4" d="M75.9616 53.1098L69.1028 67.6745C69.0075 67.8763 68.8734 68.0573 68.7081 68.2073C68.5428 68.3572 68.3495 68.4731 68.1394 68.5483C67.9293 68.6234 67.7064 68.6565 67.4835 68.6454C67.2606 68.6344 67.0421 68.5795 66.8404 68.4839L56.6463 63.6039C56.4421 63.5092 56.2587 63.3751 56.1067 63.2091C55.9546 63.0432 55.837 62.8488 55.7605 62.6371C55.6841 62.4254 55.6503 62.2007 55.6612 61.9759C55.6721 61.7511 55.7274 61.5307 55.8239 61.3274L62.6828 46.7745C62.7778 46.5723 62.9118 46.3909 63.0772 46.2407C63.2426 46.0905 63.436 45.9746 63.6464 45.8994C63.8568 45.8243 64.0799 45.7915 64.303 45.803C64.5261 45.8145 64.7447 45.8699 64.9463 45.9662L75.1404 50.8462C75.3439 50.9398 75.5269 51.0729 75.6785 51.2377C75.8302 51.4025 75.9477 51.5958 76.0241 51.8064C76.1005 52.017 76.1343 52.2406 76.1236 52.4643C76.1128 52.6881 76.0578 52.9075 75.9616 53.1098Z" fill="#50A5EF"/>
<path id="Vector_5" opacity="0.3" d="M68.8344 47.8313L65.1285 55.6901C64.7285 56.5372 63.7168 56.9019 62.8697 56.5019L58.9756 54.643L62.6815 46.7724C63.0697 45.9254 64.0932 45.5607 64.9403 45.9724L68.8344 47.8313Z" fill="#7CBCF3"/>
<path id="Vector_6" opacity="0.5" d="M75.9644 53.1133L69.1056 67.678C68.7056 68.525 67.6939 68.8897 66.835 68.4897L56.6468 63.6074C55.788 63.1956 55.4233 62.1956 55.8233 61.325L57.0821 58.6544L64.7056 62.3133C65.5527 62.7133 66.5644 62.3486 66.9762 61.5015L72.5762 49.6191L75.1409 50.8427C75.9997 51.2544 76.3644 52.2662 75.9644 53.1133Z" fill="#3894FF"/>
<path id="Vector_7" d="M41.5301 20.5857C41.5301 29.7457 25.0077 41.5692 25.0077 41.5692C24.7465 41.3868 20.6277 38.3939 16.576 34.321C12.5136 30.2468 8.53125 25.0915 8.53125 20.5857C8.53125 15.488 12.6607 11.3574 17.7477 11.3574C20.696 11.3574 23.336 12.7457 25.0195 14.908C25.8842 13.8022 26.9893 12.9078 28.2511 12.2926C29.5128 11.6774 30.8981 11.3576 32.3018 11.3574C37.3889 11.3574 41.5301 15.488 41.5301 20.5857Z" fill="#50A5EF"/>
<path id="Vector_8" opacity="0.3" d="M25.9528 13.8951C23.5058 20.0621 16.0517 26.5492 12.3528 29.4951C10.1352 26.5598 8.5293 23.4421 8.5293 20.5857C8.5293 15.488 12.6611 11.3574 17.7469 11.3574C20.6952 11.3574 23.3352 12.7457 25.0187 14.908C25.3034 14.5433 25.6234 14.2021 25.9528 13.8951Z" fill="white"/>
<path id="Vector_9" opacity="0.1" d="M41.5299 20.5847C41.5299 29.7447 25.0075 41.5682 25.0075 41.5682C24.7463 41.3859 20.6275 38.3929 16.5757 34.32C15.7132 33.459 14.882 32.567 14.084 31.6459C16.9287 34.1835 19.2499 35.8671 19.444 36.0035C19.444 36.0035 35.9663 24.18 35.9663 15.02C35.9663 13.9282 35.7734 12.8812 35.431 11.9023C38.9816 13.1882 41.5299 16.5906 41.5299 20.5847Z" fill="black"/>
<path id="Vector_10" d="M75.6499 49.7876L65.4499 44.9052C64.8784 44.6335 64.2333 44.5577 63.6144 44.6896C62.9956 44.8214 62.4374 45.1536 62.0263 45.6347C52.0969 40.4817 42.3322 40.6111 35.5675 46.1052C35.3675 46.27 35.0499 46.4582 34.6146 46.3994C24.0381 45.2464 20.2381 49.2111 20.0028 49.47C19.7675 49.7876 19.5793 50.1288 19.4499 50.4935L7.42633 49.2582C4.79104 48.9711 2.44398 51.197 2.72045 53.9641C2.81005 54.8134 3.15134 55.6165 3.70054 56.2705C4.24973 56.9245 4.98179 57.3996 5.8028 57.6347L33.2028 65.517C35.1804 66.0864 37.3134 65.9994 39.144 65.1876C43.4851 63.2817 48.2122 63.2782 54.5087 62.4229C54.5499 63.1547 55.111 64.1805 56.144 64.67L66.3322 69.5405C67.8381 70.25 69.5099 69.5535 70.1675 68.1758L77.0263 53.6111C77.1874 53.2698 77.2796 52.9 77.2975 52.5229C77.3155 52.1459 77.259 51.769 77.1311 51.4139C77.0033 51.0587 76.8066 50.7323 76.5524 50.4532C76.2983 50.1742 75.9916 49.948 75.6499 49.7876ZM55.1675 59.9405C48.4499 60.9464 43.164 60.8641 38.191 63.0347C36.9087 63.6111 35.3557 63.6817 33.8499 63.2582L6.44986 55.3758C5.69692 55.1523 5.14398 54.5052 5.06162 53.717C4.92515 52.3476 6.20633 51.4053 7.17927 51.5994L19.3793 52.8464H19.4028C19.9052 54.6076 21.4252 55.6229 23.0381 55.6229C23.1087 55.6229 23.1793 55.6229 23.2381 55.6111L42.8852 54.7523C43.5322 54.7288 44.0381 54.1758 44.0146 53.5288C43.9793 52.8817 43.4146 52.3758 42.7793 52.3994L23.1322 53.27C21.8204 53.33 21.184 51.87 21.8381 50.9523C22.2263 50.5994 25.6381 47.7876 34.3322 48.7405C35.3087 48.8582 36.2734 48.5641 37.0499 47.9288C43.0616 43.0582 51.8734 43.0111 60.9322 47.7052L55.1675 59.9405ZM74.8969 52.5994V52.6111L68.0381 67.1641C67.9204 67.4347 67.6028 67.5405 67.344 67.4229L57.144 62.5405C57.0795 62.5108 57.0215 62.4686 56.9735 62.4163C56.9255 62.364 56.8884 62.3027 56.8643 62.2359C56.8402 62.1691 56.8296 62.0982 56.8332 62.0273C56.8368 61.9564 56.8545 61.8869 56.8852 61.8229L63.7557 47.27C63.8546 47.0405 64.131 46.9005 64.4381 47.0229L74.6381 51.9052C74.9287 52.0511 75.0181 52.357 74.8969 52.5994ZM32.2969 10.1758C29.544 10.1758 26.9557 11.2464 25.0263 13.1405C23.0836 11.2326 20.467 10.1673 17.744 10.1758C12.0146 10.1758 7.35574 14.8464 7.35574 20.5876C7.35574 28.3217 18.871 38.9005 24.3322 42.5288C24.5322 42.67 24.7675 42.7405 25.0028 42.7405C25.2499 42.7405 25.4852 42.67 25.6969 42.5288C26.391 42.0229 42.7087 30.2347 42.7087 20.5876C42.7087 14.8464 38.0381 10.1758 32.2969 10.1758ZM25.0028 40.1052C19.7228 36.0876 9.70868 27.2464 9.70868 20.5876C9.70868 16.1405 13.3087 12.5288 17.744 12.5288C20.2499 12.5288 22.5557 13.6582 24.0852 15.6229C24.1949 15.7643 24.3353 15.8789 24.4958 15.9582C24.6563 16.0374 24.8327 16.0792 25.0117 16.0803C25.1907 16.0814 25.3676 16.0419 25.5291 15.9647C25.6906 15.8875 25.8324 15.7747 25.944 15.6347C26.6945 14.6652 27.6576 13.881 28.7591 13.3425C29.8605 12.804 31.0709 12.5256 32.2969 12.5288C36.744 12.5288 40.3557 16.1405 40.3557 20.5876C40.3557 28.0229 28.0616 37.7876 25.0028 40.1052Z" fill="#2B2F64"/>
<path id="Vector_11" opacity="0.75" d="M19.1073 29.8779C19.4309 30.4379 20.1485 30.6344 20.7144 30.3085L23.8474 28.5003V32.1167C23.8474 32.4288 23.9713 32.728 24.1919 32.9486C24.4126 33.1693 24.7118 33.2932 25.0238 33.2932C25.3358 33.2932 25.6351 33.1693 25.8557 32.9486C26.0763 32.728 26.2003 32.4288 26.2003 32.1167V28.5003L29.3332 30.3085C29.6033 30.4621 29.9231 30.5026 30.223 30.4212C30.5228 30.3398 30.7782 30.1431 30.9336 29.874C31.0889 29.605 31.1315 29.2854 31.0521 28.9851C30.9727 28.6847 30.7777 28.428 30.5097 28.2709L27.3779 26.4626L30.5097 24.6544C30.7801 24.4984 30.9774 24.2414 31.0582 23.9399C31.1391 23.6384 31.0969 23.3171 30.9409 23.0467C30.7849 22.7764 30.5278 22.5791 30.2264 22.4982C29.9249 22.4173 29.6036 22.4596 29.3332 22.6156L26.2003 24.4238V20.8073C26.2003 20.4953 26.0763 20.1961 25.8557 19.9754C25.6351 19.7548 25.3358 19.6309 25.0238 19.6309C24.7118 19.6309 24.4126 19.7548 24.1919 19.9754C23.9713 20.1961 23.8474 20.4953 23.8474 20.8073V24.425L20.7144 22.6156C20.5805 22.5383 20.4328 22.4882 20.2795 22.4681C20.1263 22.4479 19.9706 22.4582 19.8213 22.4982C19.5198 22.5791 19.2628 22.7764 19.1068 23.0467C19.0295 23.1806 18.9794 23.3284 18.9593 23.4816C18.9391 23.6349 18.9494 23.7906 18.9894 23.9399C19.0703 24.2414 19.2676 24.4984 19.5379 24.6544L22.6709 26.4626L19.5379 28.2709C19.2677 28.4269 19.0706 28.6838 18.9898 28.9852C18.9091 29.2866 18.9513 29.6077 19.1073 29.8779Z" fill="white"/>
<g id="Group">
<path id="Vector_12" d="M54.1114 6.80037L54.9914 8.88037C55.0714 9.04037 55.2314 9.20037 55.4714 9.28037L57.7114 9.76037C58.2714 9.84037 58.4314 10.5604 58.0314 10.8804L56.3514 12.4004C56.1914 12.5604 56.1114 12.7204 56.1114 12.9604L56.3514 15.2004C56.4314 15.7604 55.8714 16.0804 55.3914 15.8404L53.4714 14.7204C53.3114 14.6404 53.0714 14.5604 52.8314 14.7204L50.7514 15.6804C50.2714 15.9204 49.7114 15.4404 49.8714 14.9604L50.3514 12.7204C50.4314 12.4804 50.3514 12.3204 50.1914 12.1604L48.6714 10.4804C48.2714 10.0804 48.5914 9.44037 49.0714 9.36037L51.3114 9.04037C51.5514 9.04037 51.7114 8.88037 51.7914 8.72037L52.9114 6.72037C53.2314 6.32037 53.8714 6.32037 54.1114 6.80037Z" fill="#84C0F4"/>
<path id="Vector_13" d="M57.7111 9.76078L55.4711 9.28078C55.2311 9.20078 55.0711 9.12078 54.9911 8.88078L54.1111 6.80078C53.9511 6.40078 53.4711 6.32078 53.1511 6.56078L53.5511 8.24078C54.1111 10.7208 52.5911 13.2008 50.1111 13.7608L49.8711 14.8008C49.7911 15.3608 50.2711 15.7608 50.7511 15.5208L52.8311 14.5608C52.9911 14.4808 53.2311 14.4808 53.4711 14.5608L55.3911 15.6808C55.8711 15.9208 56.4311 15.6008 56.3511 15.0408L56.1111 12.8808C56.1111 12.6408 56.1911 12.4808 56.3511 12.3208L58.0311 10.8008C58.4311 10.4808 58.2711 9.84078 57.7111 9.76078Z" fill="#4895D8"/>
<path id="Vector_14" d="M55.711 16.24C55.551 16.24 55.311 16.16 55.151 16.08L53.231 14.96C53.151 14.88 53.071 14.88 52.991 14.96L50.911 15.92C50.511 16.08 50.111 16 49.791 15.76C49.471 15.52 49.311 15.12 49.391 14.72L49.871 12.48C49.871 12.4 49.871 12.32 49.791 12.24L48.271 10.56C48.031 10.24 47.951 9.84 48.031 9.44C48.111 9.04 48.511 8.8 48.911 8.8L51.311 8.64C51.391 8.64 51.471 8.56 51.471 8.48L52.591 6.56C52.751 6.24 53.151 6 53.551 6C53.951 6 54.271 6.24 54.431 6.64L55.311 8.72C55.311 8.8 55.391 8.88 55.471 8.88L57.711 9.36C58.111 9.44 58.431 9.76 58.511 10.08C58.591 10.48 58.511 10.88 58.191 11.12L56.511 12.64C56.431 12.72 56.431 12.8 56.431 12.88L56.671 15.12C56.751 15.52 56.511 15.92 56.191 16.16C56.111 16.24 55.951 16.24 55.711 16.24ZM53.071 14.16C53.231 14.16 53.471 14.24 53.631 14.32L55.551 15.44C55.631 15.52 55.791 15.44 55.791 15.44C55.791 15.44 55.951 15.36 55.871 15.2L55.711 12.96C55.631 12.64 55.791 12.24 56.031 12.08L57.711 10.56C57.791 10.48 57.791 10.32 57.791 10.32C57.791 10.24 57.711 10.16 57.631 10.16L55.391 9.68C55.071 9.6 54.751 9.36 54.671 9.04L53.791 6.96C53.711 6.8 53.631 6.8 53.551 6.8C53.471 6.8 53.391 6.8 53.311 6.96L52.191 8.96C52.031 9.28 51.711 9.44 51.391 9.52L49.151 9.76C48.991 9.68 48.911 9.76 48.911 9.84C48.911 9.92 48.831 10 48.991 10.08L50.511 11.76C50.751 12 50.831 12.4 50.751 12.72L50.271 14.96C50.271 15.12 50.351 15.2 50.351 15.2C50.351 15.2 50.511 15.28 50.591 15.2L52.671 14.24C52.831 14.16 52.991 14.16 53.071 14.16Z" fill="#2B2F64"/>
</g>
<path id="Vector_15" d="M45.958 32.021C45.7063 32.021 45.4545 31.7692 45.4545 31.5175V29.5035C45.4545 29.2517 45.7063 29 45.958 29C46.2098 29 46.4615 29.2517 46.4615 29.5035V31.4336C46.4615 31.7692 46.2098 32.021 45.958 32.021ZM44.1958 32.4406C44.028 32.4406 43.8601 32.3566 43.7762 32.1888L42.7692 30.5105C42.6014 30.2587 42.6853 30.007 42.9371 29.8392C43.1888 29.6713 43.4406 29.7552 43.6084 30.007L44.6154 31.6853C44.7832 31.9371 44.6993 32.1888 44.4476 32.3566C44.3636 32.4406 44.2797 32.4406 44.1958 32.4406ZM42.8531 33.7832C42.7692 33.7832 42.6853 33.7832 42.6014 33.6993L40.9231 32.6923C40.6713 32.5245 40.5874 32.2727 40.7552 32.021C40.9231 31.7692 41.1748 31.6853 41.4266 31.8531L43.1049 32.8601C43.3566 33.028 43.4406 33.2797 43.2727 33.5315C43.1888 33.6993 43.021 33.7832 42.8531 33.7832ZM42.4336 35.5455H40.5035C40.2518 35.5455 40 35.2937 40 35.042C40 34.7902 40.2518 34.5385 40.5035 34.5385H42.4336C42.6853 34.5385 42.9371 34.7902 42.9371 35.042C42.9371 35.2937 42.6853 35.5455 42.4336 35.5455ZM41.1748 38.3147C41.007 38.3147 40.8392 38.2308 40.7552 38.0629C40.5874 37.8112 40.6713 37.5594 40.9231 37.3916L42.6014 36.3846C42.8531 36.2168 43.1049 36.3007 43.2727 36.5524C43.4406 36.8042 43.3566 37.0559 43.1049 37.2238L41.4266 38.2308C41.3427 38.3147 41.2587 38.3147 41.1748 38.3147ZM43.1888 40.3287C43.1049 40.3287 43.021 40.3287 42.9371 40.2448C42.6853 40.0769 42.6014 39.8252 42.7692 39.5734L43.7762 37.8951C43.9441 37.6434 44.1958 37.5594 44.4476 37.7273C44.6993 37.8951 44.7832 38.1469 44.6154 38.3986L43.6084 40.0769C43.5245 40.2448 43.3566 40.3287 43.1888 40.3287ZM45.958 41.0839C45.7063 41.0839 45.4545 40.8322 45.4545 40.5804V38.6504C45.4545 38.3986 45.7063 38.1469 45.958 38.1469C46.2098 38.1469 46.4615 38.3986 46.4615 38.6504V40.5804C46.4615 40.8322 46.2098 41.0839 45.958 41.0839ZM48.7273 40.3287C48.5594 40.3287 48.3916 40.2448 48.3077 40.0769L47.3007 38.3986C47.1329 38.1469 47.2168 37.8951 47.4685 37.7273C47.7203 37.5594 47.972 37.6434 48.1399 37.8951L49.1469 39.5734C49.3147 39.8252 49.2308 40.0769 48.979 40.2448C48.8951 40.3287 48.8112 40.3287 48.7273 40.3287ZM50.7413 38.3147C50.6573 38.3147 50.5734 38.3147 50.4895 38.2308L48.8112 37.2238C48.5594 37.0559 48.4755 36.8042 48.6434 36.5524C48.8112 36.3007 49.0629 36.2168 49.3147 36.3846L50.993 37.3916C51.2448 37.5594 51.3287 37.8112 51.1608 38.0629C51.0769 38.2308 50.9091 38.3147 50.7413 38.3147ZM51.4965 35.5455H49.5664C49.3147 35.5455 49.0629 35.2937 49.0629 35.042C49.0629 34.7902 49.3147 34.5385 49.5664 34.5385H51.4965C51.7483 34.5385 52 34.7902 52 35.042C52 35.2937 51.7483 35.5455 51.4965 35.5455ZM49.0629 33.7832C48.8951 33.7832 48.7273 33.6993 48.6434 33.5315C48.4755 33.2797 48.5594 33.028 48.8112 32.8601L50.4895 31.8531C50.7413 31.6853 50.993 31.7692 51.1608 32.021C51.3287 32.2727 51.2448 32.5245 50.993 32.6923L49.3147 33.6993C49.2308 33.7832 49.1469 33.7832 49.0629 33.7832ZM47.7203 32.4406C47.6364 32.4406 47.5525 32.4406 47.4685 32.3566C47.3007 32.2727 47.2168 31.9371 47.3007 31.6853L48.3077 30.007C48.4755 29.7552 48.7273 29.6713 48.979 29.8392C49.2308 30.007 49.3147 30.2587 49.1469 30.5105L48.1399 32.1888C48.0559 32.3566 47.8881 32.4406 47.7203 32.4406Z" fill="#50A5EF"/>
<path id="Vector_16" d="M46.001 37C44.881 37 44.001 36.12 44.001 35C44.001 33.88 44.881 33 46.001 33C47.121 33 48.001 33.88 48.001 35C48.081 36.04 47.121 37 46.001 37ZM46.001 33.88C45.361 33.88 44.881 34.36 44.881 35C44.881 35.64 45.361 36.12 46.001 36.12C46.641 36.12 47.121 35.64 47.121 35C47.121 34.36 46.641 33.88 46.001 33.88Z" fill="#2B2F64"/>
<g id="Group_2">
<path id="Vector_17" d="M16.4006 46.0805C17.3726 46.0805 18.1606 45.2926 18.1606 44.3205C18.1606 43.3485 17.3726 42.5605 16.4006 42.5605C15.4286 42.5605 14.6406 43.3485 14.6406 44.3205C14.6406 45.2926 15.4286 46.0805 16.4006 46.0805Z" fill="#84C0F4"/>
<path id="Vector_18" d="M16.8007 42.7207V42.8807C16.8007 44.0007 15.8407 44.9607 14.7207 44.9607C14.9607 45.7607 15.7607 46.3207 16.6407 46.0807C17.3607 45.9207 17.9207 45.3607 18.0007 44.7207C18.2407 43.7607 17.6807 42.8807 16.8007 42.7207Z" fill="#4895D8"/>
<path id="Vector_19" d="M16.401 46.8C15.041 46.8 14.001 45.68 14.001 44.4C14.001 43.04 15.121 42 16.401 42C17.681 42 18.801 43.12 18.801 44.4C18.801 45.68 17.761 46.8 16.401 46.8ZM16.401 43.04C15.681 43.04 15.121 43.6 15.121 44.32C15.121 45.04 15.681 45.6 16.401 45.6C17.121 45.6 17.681 45.04 17.681 44.32C17.681 43.6 17.121 43.04 16.401 43.04Z" fill="#2B2F64"/>
</g>
<g id="Group_3">
<path id="Vector_20" d="M13.8794 6.56039V6.72039C10.4394 6.72039 7.71941 9.52039 7.71941 12.8804H7.55941C7.55941 10.4804 5.87941 8.08039 4.35941 7.44039C3.47941 6.96039 2.43941 6.72039 1.39941 6.72039V6.56039C4.83941 6.56039 7.55941 3.76039 7.55941 0.400391H7.71941C7.71941 1.60039 8.03941 2.64039 8.59941 3.60039C9.71941 5.52039 11.8794 6.56039 13.8794 6.56039Z" fill="#84C0F4"/>
<path id="Vector_21" d="M13.8804 6.55953V6.71953C10.4404 6.71953 7.72035 9.51953 7.72035 12.8795H7.56035C7.56035 10.7195 6.44035 8.63953 4.36035 7.43953C4.44035 7.43953 8.60035 7.51953 8.60035 3.51953C9.72035 5.51953 11.8804 6.55953 13.8804 6.55953Z" fill="#4895D8"/>
<path id="Vector_22" d="M7.72 13.28H7.56C7.32 13.28 7.16 13.12 7.16 12.88C7.16 10.72 5.56 8.4 4.2 7.84C3.32 7.36 2.36 7.12 1.4 7.12C1.16 7.12 1 6.96 1 6.72V6.56C1 6.32 1.16 6.16 1.4 6.16C4.6 6.16 7.16 3.6 7.16 0.4C7.16 0.16 7.32 0 7.56 0H7.72C7.96 0 8.12 0.16 8.12 0.4C8.12 1.44 8.44 2.48 8.92 3.36C9.88 5.12 11.88 6.16 13.88 6.16C14.12 6.16 14.28 6.32 14.28 6.56V6.72C14.28 6.96 14.12 7.12 13.88 7.12C10.68 7.12 8.12 9.68 8.12 12.88C8.12 13.12 7.96 13.28 7.72 13.28ZM3.4 6.64C3.8 6.8 4.12 6.96 4.52 7.12C5.72 7.6 7 9.12 7.64 10.88C8.28 8.88 9.88 7.28 11.88 6.64C10.36 6.16 9 5.12 8.28 3.76C8.04 3.36 7.8 2.88 7.64 2.48C7 4.4 5.4 6 3.4 6.64Z" fill="#384169"/>
</g>
<path id="Vector_23" d="M29.861 1.86C29.621 2.1 29.301 2.1 29.061 1.86L28.181 0.98C27.941 0.74 27.941 0.42 28.181 0.18C28.421 -0.06 28.741 -0.06 28.981 0.18L29.861 1.06C30.101 1.3 30.101 1.62 29.861 1.86ZM32.901 4.9C32.661 5.14 32.341 5.14 32.101 4.9L31.221 4.02C30.981 3.78 30.981 3.46 31.221 3.22C31.461 2.98 31.781 2.98 32.021 3.22L32.901 4.1C33.141 4.34 33.141 4.66 32.901 4.9ZM31.221 1.86C30.981 1.62 30.981 1.3 31.221 1.06L32.101 0.18C32.341 -0.06 32.661 -0.06 32.901 0.18C33.141 0.42 33.141 0.74 32.901 0.98L32.021 1.86C31.781 2.1 31.461 2.1 31.221 1.86ZM28.181 4.9C27.941 4.66 27.941 4.34 28.181 4.1L29.141 3.22C29.381 2.98 29.701 2.98 29.941 3.22C30.181 3.46 30.181 3.78 29.941 4.02L29.061 4.9C28.821 5.14 28.421 5.14 28.181 4.9Z" fill="#50A5EF"/>
<path id="Vector_24" d="M30.5806 2.97953C30.8457 2.97953 31.0606 2.76463 31.0606 2.49953C31.0606 2.23443 30.8457 2.01953 30.5806 2.01953C30.3155 2.01953 30.1006 2.23443 30.1006 2.49953C30.1006 2.76463 30.3155 2.97953 30.5806 2.97953Z" fill="#2B2F64"/>
<path id="Vector_25" d="M5.86098 30.86C5.62098 31.1 5.30098 31.1 5.06098 30.86L4.18098 29.98C3.94098 29.74 3.94098 29.42 4.18098 29.18C4.42098 28.94 4.74098 28.94 4.98098 29.18L5.86098 30.06C6.10098 30.22 6.10098 30.62 5.86098 30.86ZM8.90097 33.82C8.66097 34.06 8.34097 34.06 8.10097 33.82L7.22097 32.94C6.98097 32.7 6.98097 32.38 7.22097 32.14C7.46097 31.9 7.78097 31.9 8.02097 32.14L8.90097 33.02C9.14097 33.26 9.14097 33.58 8.90097 33.82ZM7.22097 30.86C6.98097 30.62 6.98097 30.3 7.22097 30.06L8.10097 29.18C8.34097 28.94 8.66097 28.94 8.90097 29.18C9.14097 29.42 9.14097 29.74 8.90097 29.98L8.02097 30.86C7.78097 31.02 7.46097 31.02 7.22097 30.86ZM4.18098 33.82C3.94098 33.58 3.94098 33.26 4.18098 33.02L5.06098 32.14C5.30098 31.9 5.62098 31.9 5.86098 32.14C6.10098 32.38 6.10098 32.7 5.86098 32.94L4.98098 33.82C4.74098 34.06 4.42098 34.06 4.18098 33.82Z" fill="#3C64A3"/>
<path id="Vector_26" d="M6.49953 31.9795C6.76463 31.9795 6.97953 31.7646 6.97953 31.4995C6.97953 31.2344 6.76463 31.0195 6.49953 31.0195C6.23443 31.0195 6.01953 31.2344 6.01953 31.4995C6.01953 31.7646 6.23443 31.9795 6.49953 31.9795Z" fill="#2B2F64"/>
</g>
</svg>
