<svg width="80" height="80" viewBox="0 0 80 80" fill="none" xmlns="http://www.w3.org/2000/svg">
<g id="insurance-time" clip-path="url(#clip0_23_4214)">
<path id="Vector" d="M26.6674 8H34.6674V16H26.6674V8ZM13.8274 19.9733L11.1874 15.7733C10.927 15.4041 10.7444 14.9858 10.6507 14.5439C10.5569 14.1019 10.554 13.6455 10.6421 13.2024C10.7302 12.7592 10.9074 12.3386 11.1631 11.9661C11.4187 11.5936 11.7474 11.277 12.1292 11.0354C12.511 10.7938 12.9379 10.6324 13.384 10.5609C13.8301 10.4894 14.2861 10.5094 14.7243 10.6196C15.1624 10.7297 15.5736 10.9278 15.9329 11.2018C16.2921 11.4758 16.5919 11.8199 16.814 12.2133L19.7074 16.7867L13.8274 19.9733ZM41.6274 16.7867L44.5207 12.2133C44.7429 11.8199 45.0427 11.4758 45.4019 11.2018C45.7611 10.9278 46.1723 10.7297 46.6105 10.6196C47.0486 10.5094 47.5046 10.4894 47.9507 10.5609C48.3968 10.6324 48.8237 10.7938 49.2055 11.0354C49.5873 11.277 49.916 11.5936 50.1717 11.9661C50.4273 12.3386 50.6046 12.7592 50.6927 13.2024C50.7808 13.6455 50.7778 14.1019 50.6841 14.5439C50.5904 14.9858 50.4078 15.4041 50.1474 15.7733L47.5074 19.9733L41.6274 16.7867Z" fill="#1F86FF"/>
<path id="Vector_2" d="M30.6673 73.3327C46.8677 73.3327 60.0007 60.1997 60.0007 43.9994C60.0007 27.799 46.8677 14.666 30.6673 14.666C14.467 14.666 1.33398 27.799 1.33398 43.9994C1.33398 60.1997 14.467 73.3327 30.6673 73.3327Z" fill="#3894FF"/>
<path id="Vector_3" d="M30.667 68C43.9218 68 54.667 57.2548 54.667 44C54.667 30.7452 43.9218 20 30.667 20C17.4122 20 6.66699 30.7452 6.66699 44C6.66699 57.2548 17.4122 68 30.667 68Z" fill="#EEF8FB"/>
<path id="Vector_4" d="M34.6676 1.33398H26.6676C25.1949 1.33398 24.001 2.52789 24.001 4.00065V6.66732C24.001 8.14008 25.1949 9.33398 26.6676 9.33398H34.6676C36.1404 9.33398 37.3343 8.14008 37.3343 6.66732V4.00065C37.3343 2.52789 36.1404 1.33398 34.6676 1.33398Z" fill="#1F86FF"/>
<path id="Vector_5" d="M62.401 78.4463L64.241 77.6463C68.528 75.7814 72.177 72.7052 74.7399 68.7952C77.3028 64.8853 78.6679 60.312 78.6677 55.6369V40.5569C78.6698 39.9103 78.436 39.2852 78.0101 38.7986C77.5843 38.3121 76.9955 37.9977 76.3543 37.9143C72.857 37.4596 66.221 36.4476 62.317 34.8609C61.6871 34.6036 60.9815 34.6036 60.3517 34.8609C56.4503 36.4436 49.8117 37.4596 46.3143 37.9143C45.6731 37.9977 45.0844 38.3121 44.6585 38.7986C44.2326 39.2852 43.9988 39.9103 44.001 40.5569V55.6369C44.0011 60.3124 45.3668 64.8861 47.9304 68.796C50.494 72.706 54.1439 75.782 58.4317 77.6463L60.2717 78.4463C60.6075 78.5925 60.97 78.668 61.3363 78.668C61.7027 78.668 62.0651 78.5925 62.401 78.4463Z" fill="#E4F1FF"/>
<path id="Vector_6" d="M60.5553 72.7544C57.2205 71.3011 54.3824 68.9061 52.3891 65.8631C50.3958 62.8201 49.334 59.2614 49.334 55.6237V44.5197C49.333 44.0661 49.4934 43.627 49.7866 43.2808C50.0797 42.9347 50.4864 42.7041 50.934 42.6304C54.254 42.1351 57.5318 41.3895 60.7393 40.3997C61.1257 40.2704 61.5436 40.2704 61.93 40.3997C65.1371 41.3891 68.4145 42.1348 71.734 42.6304C72.1817 42.7039 72.5885 42.9344 72.8817 43.2806C73.1749 43.6268 73.3352 44.066 73.334 44.5197V55.6357C73.3343 59.2747 72.2709 62.8345 70.2746 65.8771C68.2783 68.9197 65.4363 71.3124 62.098 72.761C61.8566 72.8656 61.5964 72.9195 61.3333 72.9195C61.0703 72.9195 60.81 72.8656 60.5687 72.761L60.5553 72.7544Z" fill="#3994FF"/>
<path id="Vector_7" d="M30.667 48C32.8761 48 34.667 46.2091 34.667 44C34.667 41.7909 32.8761 40 30.667 40C28.4579 40 26.667 41.7909 26.667 44C26.667 46.2091 28.4579 48 30.667 48Z" fill="#3894FF"/>
<path id="Vector_8" d="M76.5258 36.5893C71.8635 36.089 67.2675 35.095 62.8152 33.624C61.8653 33.2359 60.8011 33.2359 59.8512 33.624C58.0796 34.2951 56.2568 34.8221 54.4005 35.2C52.7909 30.863 50.0241 27.0497 46.4002 24.1742C42.7764 21.2988 38.4342 19.4709 33.8448 18.8891C29.2555 18.3073 24.5945 18.9937 20.3678 20.874C16.141 22.7542 12.5101 25.7564 9.86922 29.5546C7.22831 33.3527 5.6783 37.8018 5.38747 42.4187C5.09663 47.0356 6.07608 51.6439 8.21949 55.7435C10.3629 59.843 13.5884 63.2771 17.5457 65.6729C21.5031 68.0687 26.0411 69.3346 30.6672 69.3333C35.6021 69.348 40.4303 67.8979 44.5405 65.1667C44.8795 66.0025 45.2627 66.8196 45.6885 67.6147C40.9209 70.6426 35.3488 72.1572 29.7044 71.9596C24.06 71.762 18.6074 69.8614 14.0633 66.5074C9.51911 63.1535 6.09596 58.5033 4.24367 53.1678C2.39139 47.8323 2.19664 42.0613 3.68502 36.6131C5.1734 31.1649 8.27527 26.2944 12.583 22.6418C16.8907 18.9892 22.2027 16.7252 27.821 16.1476C33.4392 15.5699 39.1008 16.7055 44.0616 19.4051C49.0225 22.1047 53.0506 26.242 55.6165 31.2733C55.7774 31.5882 56.0568 31.8263 56.3932 31.9352C56.7297 32.0441 57.0956 32.0149 57.4105 31.854C57.7254 31.6931 57.9635 31.4137 58.0724 31.0773C58.1813 30.7408 58.1521 30.3749 57.9912 30.06C55.9061 25.9799 52.935 22.4179 49.2952 19.6347L51.2752 16.4853C51.6338 15.968 51.884 15.3835 52.0108 14.767C52.1376 14.1505 52.1384 13.5147 52.0132 12.8979C51.8879 12.281 51.6391 11.6959 51.2818 11.1777C50.9245 10.6595 50.4661 10.219 49.9341 9.88254C49.4021 9.54612 48.8076 9.3208 48.1862 9.22013C47.5649 9.11946 46.9296 9.14552 46.3186 9.29675C45.7076 9.44798 45.1336 9.72125 44.6309 10.1001C44.1283 10.479 43.7075 10.9556 43.3938 11.5013L41.0898 15.1413C39.4346 14.5524 37.7319 14.1063 36.0005 13.808V10.4213C36.7777 10.1466 37.451 9.63836 37.9284 8.96627C38.4057 8.29417 38.6638 7.49101 38.6672 6.66667V4C38.6672 2.93913 38.2457 1.92172 37.4956 1.17157C36.7455 0.421427 35.728 0 34.6672 0L26.6672 0C25.6063 0 24.5889 0.421427 23.8387 1.17157C23.0886 1.92172 22.6672 2.93913 22.6672 4V6.66667C22.6706 7.49101 22.9286 8.29417 23.406 8.96627C23.8833 9.63836 24.5566 10.1466 25.3338 10.4213V13.8067C23.6048 14.1094 21.9052 14.5608 20.2538 15.156L17.9472 11.5107C17.2768 10.4791 16.2311 9.74913 15.0317 9.47535C13.8323 9.20157 12.5734 9.40553 11.5218 10.044C10.4892 10.7174 9.75881 11.7659 9.48511 12.9679C9.21141 14.1699 9.41583 15.4313 10.0552 16.4853L12.0552 19.656C5.79933 24.4565 1.63441 31.4835 0.426366 39.2758C-0.781678 47.0682 1.06011 55.0264 5.56879 61.4957C10.0775 67.965 16.9061 72.4477 24.6349 74.0117C32.3637 75.5757 40.398 74.1007 47.0672 69.8933C49.7549 73.8484 53.509 76.9603 57.8938 78.868C58.9522 79.4739 60.1225 79.859 61.3338 80C62.543 79.8568 63.7111 79.4718 64.7685 78.868C69.2951 76.9015 73.1484 73.6551 75.8545 69.5279C78.5607 65.4007 80.0017 60.5726 80.0005 55.6373V40.556C79.9991 39.5864 79.6463 38.6501 79.0074 37.9208C78.3685 37.1914 77.4868 36.7184 76.5258 36.5893ZM45.6525 12.916C45.95 12.498 46.3968 12.2103 46.9005 12.1125C47.4042 12.0147 47.9262 12.1141 48.3586 12.3904C48.7909 12.6666 49.1006 13.0984 49.2236 13.5965C49.3466 14.0946 49.2734 14.621 49.0192 15.0667L47.1085 18.1053C45.9782 17.3883 44.8018 16.7465 43.5872 16.184L45.6525 12.916ZM36.0005 4V6.66667C36.0005 7.02029 35.86 7.35943 35.61 7.60948C35.3599 7.85952 35.0208 8 34.6672 8H32.0005V2.66667H34.6672C35.0208 2.66667 35.3599 2.80714 35.61 3.05719C35.86 3.30724 36.0005 3.64638 36.0005 4ZM25.3338 4C25.3338 3.64638 25.4743 3.30724 25.7244 3.05719C25.9744 2.80714 26.3135 2.66667 26.6672 2.66667H29.3338V8H26.6672C26.3135 8 25.9744 7.85952 25.7244 7.60948C25.4743 7.35943 25.3338 7.02029 25.3338 6.66667V4ZM28.0005 10.6667H33.3338V13.4667C32.4525 13.3907 31.5645 13.3333 30.6672 13.3333C29.7698 13.3333 28.8805 13.38 28.0005 13.456V10.6667ZM12.3138 15.0667C12.0348 14.6163 11.9441 14.0743 12.0613 13.5576C12.1786 13.0409 12.4944 12.5911 12.9405 12.3053C13.3915 12.0377 13.9279 11.9533 14.4393 12.0697C14.9506 12.186 15.3978 12.4942 15.6885 12.9307L17.7552 16.1987C16.5425 16.7653 15.3681 17.4102 14.2392 18.1293L12.3138 15.0667ZM32.0005 66.6133V64C32.0005 63.6464 31.86 63.3072 31.61 63.0572C31.3599 62.8071 31.0208 62.6667 30.6672 62.6667C30.3135 62.6667 29.9744 62.8071 29.7244 63.0572C29.4743 63.3072 29.3338 63.6464 29.3338 64V66.5987C24.2571 66.3055 19.4288 64.3036 15.6338 60.9187L17.4672 59.084C17.7002 58.8308 17.8263 58.4974 17.8192 58.1534C17.812 57.8094 17.6722 57.4815 17.4289 57.2382C17.1856 56.995 16.8577 56.8551 16.5137 56.848C16.1698 56.8409 15.8363 56.967 15.5832 57.2L13.7485 59.0347C10.3633 55.2394 8.36142 50.4106 8.0685 45.3333H10.6672C11.0208 45.3333 11.3599 45.1929 11.61 44.9428C11.86 44.6928 12.0005 44.3536 12.0005 44C12.0005 43.6464 11.86 43.3072 11.61 43.0572C11.3599 42.8071 11.0208 42.6667 10.6672 42.6667H8.0685C8.36172 37.5899 10.3635 32.7616 13.7485 28.9667L15.5832 30.8C15.8363 31.033 16.1698 31.1591 16.5137 31.152C16.8577 31.1449 17.1856 31.005 17.4289 30.7618C17.6722 30.5185 17.812 30.1906 17.8192 29.8466C17.8263 29.5026 17.7002 29.1692 17.4672 28.916L15.6325 27.0813C19.4278 23.6961 24.2566 21.6943 29.3338 21.4013V24C29.3338 24.3536 29.4743 24.6928 29.7244 24.9428C29.9744 25.1929 30.3135 25.3333 30.6672 25.3333C31.0208 25.3333 31.3599 25.1929 31.61 24.9428C31.86 24.6928 32.0005 24.3536 32.0005 24V21.3867C37.0845 21.6726 41.922 23.6708 45.7258 27.056L43.8672 28.916C43.7349 29.0377 43.6286 29.1849 43.5547 29.3488C43.4808 29.5126 43.4408 29.6897 43.4371 29.8694C43.4333 30.0491 43.466 30.2277 43.5331 30.3945C43.6001 30.5613 43.7002 30.7128 43.8273 30.8399C43.9544 30.967 44.1059 31.067 44.2727 31.1341C44.4394 31.2012 44.618 31.2338 44.7977 31.2301C44.9774 31.2264 45.1545 31.1864 45.3184 31.1124C45.4822 31.0385 45.6294 30.9323 45.7512 30.8L47.6085 28.9427C49.3774 30.9402 50.7794 33.2346 51.7498 35.72C49.888 36.056 48.0181 36.3459 46.1418 36.5893C45.1801 36.7167 44.2975 37.1893 43.6583 37.919C43.0191 38.6487 42.6669 39.5859 42.6672 40.556V55.6373C42.6703 57.9728 42.9965 60.2966 43.6365 62.5427C40.2194 64.9699 36.1855 66.3811 32.0005 66.6133ZM77.3338 55.6373C77.3346 60.053 76.0452 64.3726 73.6241 68.0653C71.2029 71.758 67.7556 74.6628 63.7058 76.4227L61.8645 77.2227C61.6974 77.295 61.5172 77.3322 61.3352 77.3322C61.1531 77.3322 60.9729 77.295 60.8058 77.2227L58.9645 76.4227C54.9142 74.6632 51.4663 71.7586 49.0447 68.0659C46.6231 64.3731 45.3333 60.0533 45.3338 55.6373V40.556C45.3341 40.234 45.4508 39.9229 45.6626 39.6802C45.8744 39.4376 46.1668 39.2798 46.4858 39.236C50.1232 38.764 56.8245 37.7293 60.8525 36.0947C61.1605 35.9685 61.5058 35.9685 61.8138 36.0947C65.8432 37.7293 72.5445 38.7613 76.1818 39.2347C76.5011 39.2785 76.7937 39.4365 77.0055 39.6794C77.2173 39.9223 77.3339 40.2337 77.3338 40.556V55.6373Z" fill="#2B2F64"/>
<path id="Vector_9" d="M32 38.8567V30.6673C32 30.3137 31.8595 29.9746 31.6095 29.7245C31.3594 29.4745 31.0203 29.334 30.6667 29.334C30.313 29.334 29.9739 29.4745 29.7239 29.7245C29.4738 29.9746 29.3333 30.3137 29.3333 30.6673V38.8567C28.4164 39.0951 27.5798 39.574 26.9099 40.2439C26.24 40.9138 25.7611 41.7504 25.5227 42.6673H21.3333C20.9797 42.6673 20.6406 42.8078 20.3905 43.0578C20.1405 43.3079 20 43.647 20 44.0007C20 44.3543 20.1405 44.6934 20.3905 44.9435C20.6406 45.1935 20.9797 45.334 21.3333 45.334H25.5227C25.7558 46.2438 26.2256 47.0758 26.8843 47.7454C27.543 48.415 28.3671 48.8984 29.273 49.1464C30.1789 49.3945 31.1344 49.3984 32.0423 49.1578C32.9502 48.9172 33.7783 48.4406 34.4424 47.7764C35.1066 47.1123 35.5832 46.2842 35.8238 45.3763C36.0644 44.4683 36.0605 43.5129 35.8124 42.607C35.5644 41.7011 35.081 40.877 34.4114 40.2183C33.7418 39.5596 32.9099 39.0898 32 38.8567ZM30.6667 46.6673C30.1393 46.6673 29.6237 46.5109 29.1851 46.2179C28.7466 45.9249 28.4048 45.5084 28.203 45.0211C28.0012 44.5339 27.9483 43.9977 28.0512 43.4804C28.1541 42.9631 28.4081 42.488 28.781 42.115C29.154 41.7421 29.6291 41.4881 30.1464 41.3852C30.6637 41.2823 31.1999 41.3351 31.6872 41.537C32.1744 41.7388 32.5909 42.0806 32.8839 42.5191C33.1769 42.9577 33.3333 43.4732 33.3333 44.0007C33.3333 44.7079 33.0524 45.3862 32.5523 45.8863C32.0522 46.3864 31.3739 46.6673 30.6667 46.6673ZM71.9467 41.3127C68.6954 40.8326 65.4859 40.1029 62.3467 39.13C61.6861 38.9083 60.9712 38.9083 60.3107 39.13C57.1718 40.1047 53.9622 40.8353 50.7107 41.3153C49.9516 41.4402 49.2618 41.8314 48.7651 42.4188C48.2683 43.0062 47.9971 43.7514 48 44.5207V55.6247C48.0201 59.6705 49.2543 63.6171 51.5428 66.9535C53.8314 70.2899 57.0688 72.8624 60.836 74.338C61.1567 74.4677 61.5153 74.4677 61.836 74.338C65.5998 72.8624 68.8344 70.2917 71.1217 66.9583C73.409 63.6248 74.6439 59.682 74.6667 55.6393V44.5207C74.6701 43.7495 74.398 43.0024 73.8992 42.4142C73.4005 41.826 72.708 41.4353 71.9467 41.3127ZM72 55.6247C71.9806 59.0461 70.9602 62.3871 69.0648 65.2357C67.1694 68.0843 64.4818 70.3159 61.3333 71.6553C58.1848 70.316 55.4971 68.0844 53.6016 65.2358C51.7062 62.3872 50.6859 59.0462 50.6667 55.6247V44.5207C50.6651 44.3832 50.7128 44.2497 50.8011 44.1443C50.8893 44.0389 51.0124 43.9686 51.148 43.946C54.5399 43.4434 57.8877 42.6784 61.1613 41.658C61.2744 41.618 61.3977 41.618 61.5107 41.658C64.7843 42.6763 68.1316 43.4408 71.5227 43.9447C71.6578 43.9681 71.7801 44.039 71.8676 44.1446C71.9551 44.2502 72.002 44.3835 72 44.5207V55.6247Z" fill="#2B2F64"/>
<path id="Vector_10" d="M64.3095 51.1462L58.5762 58.0248L58.2762 57.7248C58.0208 57.5051 57.6917 57.3902 57.355 57.4032C57.0183 57.4163 56.6991 57.5563 56.4614 57.7951C56.2238 58.0339 56.0854 58.3539 56.074 58.6906C56.0626 59.0273 56.1792 59.3559 56.4002 59.6102L57.7335 60.9435C57.9808 61.1917 58.3165 61.3317 58.6668 61.3328H58.7268C58.912 61.3242 59.0933 61.2774 59.2595 61.1952C59.4256 61.113 59.5729 60.9974 59.6922 60.8555L66.3588 52.8555C66.4711 52.7209 66.5557 52.5654 66.6079 52.3981C66.66 52.2307 66.6787 52.0547 66.6629 51.8802C66.647 51.7056 66.5969 51.5358 66.5155 51.3806C66.434 51.2254 66.3228 51.0877 66.1882 50.9755C66.0535 50.8633 65.8981 50.7787 65.7307 50.7265C65.5634 50.6743 65.3874 50.6556 65.2128 50.6715C65.0382 50.6873 64.8685 50.7374 64.7133 50.8189C64.5581 50.9003 64.4217 51.0115 64.3095 51.1462Z" fill="#2B2F64"/>
</g>
<defs>
<clipPath id="clip0_23_4214">
<rect width="80" height="80" fill="white"/>
</clipPath>
</defs>
</svg>
